<svg width="49" height="43" viewBox="0 0 49 43" fill="none" xmlns="http://www.w3.org/2000/svg">
<path d="M24.3036 19C26.6473 19 29.2723 20.125 32.2723 22.2812C34.9911 24.3438 37.3348 26.7812 39.3036 29.6875C41.2723 32.6875 42.3036 35.4062 42.3036 37.75C42.3036 39.4375 41.6473 40.6562 40.5223 41.5938C39.3036 42.5312 37.6161 43 35.5536 43C34.4286 43 33.3973 42.9062 32.2723 42.625C31.5223 42.4375 30.5848 42.1562 29.3661 41.7812L26.8348 40.9375C25.8973 40.75 25.0536 40.6562 24.3036 40.6562C23.5536 40.6562 22.7098 40.75 21.7723 40.9375C21.2098 41.125 20.3661 41.4062 19.3348 41.6875C18.0223 42.1562 16.9911 42.4375 16.3348 42.625C15.2098 42.9062 14.0848 43 13.0536 43C10.8973 43 9.20984 42.5312 8.08484 41.5938C6.86609 40.6562 6.30359 39.4375 6.30359 37.75C6.30359 35.4062 7.24109 32.6875 9.30359 29.6875C11.1786 26.7812 13.5223 24.3438 16.3348 22.2812C19.2411 20.125 21.8661 19 24.3036 19ZM10.5223 17.7812C10.9911 19.4688 10.8973 20.9688 10.3348 22.375C9.67859 23.7812 8.64734 24.625 7.33484 24.9062C5.92859 25.2812 4.61609 25 3.30359 24.0625C1.99109 23.125 1.05359 21.9062 0.584839 20.2188C0.0223389 18.625 0.116089 17.125 0.772339 15.7188C1.33484 14.3125 2.36609 13.4688 3.77234 13.0938C5.08484 12.8125 6.49109 13.0938 7.80359 14.0312C9.11609 14.9688 9.95984 16.1875 10.5223 17.7812ZM18.3973 15.9062C16.8973 16.2812 15.4911 15.9062 14.0848 14.6875C12.6786 13.5625 11.7411 11.9688 11.1786 9.90625C10.6161 7.84375 10.6161 5.96875 11.2723 4.28125C11.8348 2.59375 12.8661 1.46875 14.3661 1.09375C15.8661 0.71875 17.2723 1.1875 18.6786 2.3125C20.0848 3.53125 21.1161 5.125 21.6786 7.1875C22.2411 9.25 22.1473 11.125 21.5848 12.8125C20.9286 14.5 19.8973 15.5312 18.3973 15.9062ZM44.8348 13.0938C46.1473 13.4688 47.1786 14.3125 47.8348 15.7188C48.3973 17.125 48.4911 18.625 48.0223 20.2188C47.4598 21.9062 46.6161 23.125 45.3036 24.0625C43.9911 25 42.5848 25.2812 41.2723 24.9062C39.8661 24.625 38.8348 23.7812 38.2723 22.375C37.6161 20.9688 37.5223 19.4688 38.0848 17.7812C38.5536 16.1875 39.4911 14.9688 40.8036 14.0312C42.1161 13.0938 43.4286 12.8125 44.8348 13.0938ZM30.2098 15.9062C28.7098 15.5312 27.5848 14.5 27.0223 12.8125C26.3661 11.125 26.3661 9.25 26.9286 7.1875C27.4911 5.125 28.4286 3.53125 29.8348 2.3125C31.2411 1.1875 32.6473 0.71875 34.1473 1.09375C35.6473 1.46875 36.6786 2.59375 37.3348 4.28125C37.8973 5.96875 37.9911 7.84375 37.4286 9.90625C36.8661 11.9688 35.8348 13.5625 34.4286 14.6875C33.0223 15.9062 31.6161 16.2812 30.2098 15.9062Z" fill="#008CDD"/>
</svg>
