<svg width="49" height="46" viewBox="0 0 49 46" fill="none" xmlns="http://www.w3.org/2000/svg">
<path d="M46.8036 7C47.1786 7 47.5536 7.1875 47.8348 7.46875C48.1161 7.75 48.3036 8.125 48.3036 8.5V11.5C48.3036 13.1875 47.6473 14.6875 46.5223 15.8125C45.3973 16.9375 43.9911 17.5 42.3036 17.5H39.3036V20.875L27.3036 16.5625V2.5C27.3036 1.84375 27.5848 1.375 28.2411 1.09375C28.8036 0.90625 29.3661 1 29.8348 1.46875L32.4598 4H37.4286C37.9911 4 38.4598 4.1875 39.0223 4.46875C39.4911 4.84375 39.8661 5.21875 40.1473 5.6875L40.8036 7H46.8036ZM36.3036 11.5C36.6786 11.5 37.0536 11.4062 37.3348 11.125C37.6161 10.8438 37.8036 10.4688 37.8036 10C37.8036 9.625 37.6161 9.25 37.3348 8.96875C37.0536 8.6875 36.6786 8.5 36.3036 8.5C35.8348 8.5 35.4598 8.6875 35.1786 8.96875C34.8973 9.25 34.8036 9.625 34.8036 10C34.8036 10.4688 34.8973 10.8438 35.1786 11.125C35.4598 11.4062 35.8348 11.5 36.3036 11.5ZM9.30359 19H25.2411L39.3036 24.0625V44.5C39.3036 44.9688 39.1161 45.3438 38.8348 45.625C38.5536 45.9062 38.1786 46 37.8036 46H31.8036C31.3348 46 30.9598 45.9062 30.6786 45.625C30.3973 45.3438 30.3036 44.9688 30.3036 44.5V34H15.3036V44.5C15.3036 44.9688 15.1161 45.3438 14.8348 45.625C14.5536 45.9062 14.1786 46 13.8036 46H7.80359C7.33484 46 6.95984 45.9062 6.67859 45.625C6.39734 45.3438 6.30359 44.9688 6.30359 44.5V24.4375C4.52234 23.875 3.11609 22.75 1.99109 21.25C0.866089 19.75 0.303589 17.9688 0.303589 16C0.303589 15.25 0.584839 14.5 1.14734 13.9375C1.70984 13.375 2.45984 13 3.30359 13C4.05359 13 4.80359 13.375 5.36609 13.9375C5.92859 14.5 6.30359 15.25 6.30359 16C6.30359 16.8438 6.58484 17.5938 7.14734 18.1562C7.70984 18.7188 8.45984 19 9.30359 19Z" fill="#008CDD"/>
</svg>
