<svg width="49" height="45" viewBox="0 0 49 45" fill="none" xmlns="http://www.w3.org/2000/svg">
<path d="M27.5848 15C28.1473 17.8125 29.4598 20.0625 31.7098 21.8438C33.8661 23.7188 36.3973 24.5625 39.3036 24.5625C40.2411 24.5625 41.1786 24.4688 42.3036 24.1875V43.5C42.3036 43.9688 42.1161 44.3438 41.8348 44.625C41.5536 44.9062 41.1786 45 40.8036 45H37.8036C37.3348 45 36.9598 44.9062 36.6786 44.625C36.3973 44.3438 36.3036 43.9688 36.3036 43.5V30L24.3036 39H27.3036C28.0536 39 28.8036 39.375 29.3661 39.9375C29.9286 40.5 30.3036 41.25 30.3036 42V43.5C30.3036 43.9688 30.1161 44.3438 29.8348 44.625C29.5536 44.9062 29.1786 45 28.8036 45H12.3036C10.6161 45 9.20984 44.4375 8.08484 43.2188C6.86609 42.0938 6.30359 40.6875 6.30359 39V15C6.30359 14.25 5.92859 13.5 5.36609 12.9375C4.80359 12.375 4.05359 12 3.30359 12C2.45984 12 1.70984 11.7188 1.14734 11.1562C0.584839 10.5938 0.303589 9.84375 0.303589 9C0.303589 8.25 0.584839 7.5 1.14734 6.9375C1.70984 6.375 2.45984 6 3.30359 6C5.74109 6 7.89734 6.9375 9.67859 8.625C11.3661 10.4062 12.3036 12.5625 12.3036 15V23.0625C14.5536 19.6875 17.4598 17.3438 21.2098 16.0312C23.1786 15.375 25.3348 15 27.5848 15ZM42.3036 6L48.3036 0V12.5625C48.3036 15.0938 47.3661 17.25 45.6786 18.9375C43.8973 20.7188 41.7411 21.5625 39.3036 21.5625C36.7723 21.5625 34.6161 20.7188 32.9286 18.9375C31.1473 17.25 30.3036 15.0938 30.3036 12.5625V0L36.3036 6H42.3036ZM35.5536 13.5C35.9286 13.5 36.3036 13.4062 36.5848 13.125C36.8661 12.8438 37.0536 12.4688 37.0536 12C37.0536 11.625 36.8661 11.25 36.5848 10.9688C36.3036 10.6875 35.9286 10.5 35.5536 10.5C35.0848 10.5 34.7098 10.6875 34.4286 10.9688C34.1473 11.25 34.0536 11.625 34.0536 12C34.0536 12.4688 34.1473 12.8438 34.4286 13.125C34.7098 13.4062 35.0848 13.5 35.5536 13.5ZM43.0536 13.5C43.4286 13.5 43.8036 13.4062 44.0848 13.125C44.3661 12.8438 44.5536 12.4688 44.5536 12C44.5536 11.625 44.3661 11.25 44.0848 10.9688C43.8036 10.6875 43.4286 10.5 43.0536 10.5C42.5848 10.5 42.2098 10.6875 41.9286 10.9688C41.6473 11.25 41.5536 11.625 41.5536 12C41.5536 12.4688 41.6473 12.8438 41.9286 13.125C42.2098 13.4062 42.5848 13.5 43.0536 13.5Z" fill="#008CDD"/>
</svg>
