<svg width="61" height="48" viewBox="0 0 61 48" fill="none" xmlns="http://www.w3.org/2000/svg">
<path d="M59.5536 3C59.9286 3 60.1161 3.1875 60.2098 3.5625C60.3036 3.9375 60.2098 4.21875 59.9286 4.40625L51.3036 7.78125V14.4375C51.3036 15.0938 51.1161 15.6562 50.7411 16.125C50.3661 16.6875 49.9911 17.0625 49.4286 17.25L46.3348 18.4688C45.5848 18.8438 44.9286 18.8438 44.1786 18.5625C43.4286 18.2812 42.8661 17.8125 42.5848 17.0625L40.8036 13.5L39.3036 12.8438V22.5C39.3036 25.3125 38.2723 27.75 36.3036 29.8125V46.5C36.3036 46.9688 36.1161 47.3438 35.8348 47.625C35.5536 47.9062 35.1786 48 34.8036 48H28.8036C28.3348 48 27.9598 47.9062 27.6786 47.625C27.3973 47.3438 27.3036 46.9688 27.3036 46.5V32.4375L17.7411 30.2812L15.4911 36.2812L18.0223 46.125C18.0223 46.6875 17.9286 47.0625 17.6473 47.4375C17.3661 47.8125 16.9911 48 16.5223 48H10.3348C9.95984 48 9.67859 47.9062 9.39734 47.7188C9.11609 47.5312 8.92859 47.25 8.92859 46.875L6.58484 37.5C6.20984 36.375 6.30359 35.1562 6.77234 33.9375L9.20984 27.5625C8.27234 26.7188 7.52234 25.6875 7.05359 24.5625C6.49109 23.4375 6.30359 22.3125 6.30359 21L6.39734 20.25C5.27234 21.0938 4.80359 22.125 4.80359 23.25V28.5C4.80359 28.9688 4.61609 29.3438 4.33484 29.625C4.05359 29.9062 3.67859 30 3.30359 30H1.80359C1.33484 30 0.959839 29.9062 0.678589 29.625C0.397339 29.3438 0.303589 28.9688 0.303589 28.5V23.25C0.303589 21 1.05359 19.125 2.74109 17.4375C4.33484 15.8438 6.30359 15 8.55359 15V15.0938C8.92859 14.625 9.39734 14.1562 9.95984 13.7812C10.8973 16.7812 12.5848 19.125 15.1161 21C17.7411 23.0625 20.8348 24 24.3036 24V23.7188C21.9598 23.3438 19.8973 22.4062 18.0223 21C16.1473 19.5938 14.7411 17.9062 13.8036 15.9375C12.7723 14.0625 12.3036 12 12.3036 9.75C12.3036 7.59375 12.7723 5.53125 13.7098 3.46875C13.8973 3.1875 14.1786 3 14.5536 3C14.9286 3 15.1161 3.1875 15.3036 3.5625C17.7411 9.1875 21.7723 12 27.3036 12C27.3036 9.84375 27.7723 7.875 28.8973 6C29.9286 4.125 31.3348 2.71875 33.2098 1.59375C35.0848 0.5625 37.0536 0 39.3036 0H50.5536C50.7411 0 50.9286 0.09375 51.1161 0.28125C51.3036 0.46875 51.3036 0.75 51.3036 0.9375C51.1161 1.6875 50.7411 2.4375 50.1786 3H59.5536ZM45.3036 9C45.6786 9 46.0536 8.90625 46.3348 8.625C46.6161 8.34375 46.8036 7.96875 46.8036 7.5C46.8036 7.125 46.6161 6.75 46.3348 6.46875C46.0536 6.1875 45.6786 6 45.3036 6C44.8348 6 44.4598 6.1875 44.1786 6.46875C43.8973 6.75 43.8036 7.125 43.8036 7.5C43.8036 7.96875 43.8973 8.34375 44.1786 8.625C44.4598 8.90625 44.8348 9 45.3036 9Z" fill="#008CDD"/>
</svg>
