<svg width="57" height="50" viewBox="0 0 57 50" fill="none" xmlns="http://www.w3.org/2000/svg">
<path d="M28.0724 0.630859C12.6505 0.630859 0.0723623 10.8027 0.0723623 23.3809C0.0723623 28.8496 2.36924 33.7715 6.30674 37.709C4.88486 43.1777 0.400487 48.0996 0.291112 48.0996C0.0723623 48.4277 -0.0370127 48.7559 0.181737 49.084C0.291112 49.4121 0.619237 49.6309 0.947362 49.6309C8.16611 49.6309 13.6349 46.1309 16.3692 44.0527C19.8692 45.3652 23.9161 46.1309 28.0724 46.1309C43.4942 46.1309 56.0724 35.959 56.0724 23.3809C56.0724 10.8027 43.4942 0.630859 28.0724 0.630859ZM28.0724 44.3809C24.2442 44.3809 20.5255 43.7246 16.9161 42.4121L16.0411 41.9746L15.2755 42.6309C12.9786 44.3809 8.60361 47.2246 2.91611 47.7715C4.44736 45.8027 6.96299 42.084 8.05674 38.1465L8.27549 37.1621L7.50986 36.3965C3.79111 32.6777 1.82236 28.1934 1.82236 23.3809C1.82236 11.7871 13.6349 2.38086 28.0724 2.38086C42.5099 2.38086 54.3224 11.7871 54.3224 23.3809C54.3224 34.9746 42.5099 44.3809 28.0724 44.3809ZM37.6974 18.1309H32.4474V12.8809C32.4474 11.8965 31.6817 11.1309 30.6974 11.1309H25.4474C24.463 11.1309 23.6974 11.8965 23.6974 12.8809V18.1309H18.4474C17.463 18.1309 16.6974 18.8965 16.6974 19.8809V25.1309C16.6974 26.1152 17.463 26.8809 18.4474 26.8809H23.6974V32.1309C23.6974 33.1152 24.463 33.8809 25.4474 33.8809H30.6974C31.6817 33.8809 32.4474 33.1152 32.4474 32.1309V26.8809H37.6974C38.6817 26.8809 39.4474 26.1152 39.4474 25.1309V19.8809C39.4474 18.8965 38.6817 18.1309 37.6974 18.1309ZM37.6974 25.1309H30.6974V32.1309H25.4474V25.1309H18.4474V19.8809H25.4474V12.8809H30.6974V19.8809H37.6974V25.1309Z" fill="#0066DE"/>
</svg>
