<svg width="90" height="89" viewBox="0 0 90 89" fill="none" xmlns="http://www.w3.org/2000/svg">
<path d="M70.9111 15.1667H19.0889C15.0002 15.1667 11.6857 18.45 11.6857 22.5001V73.8334C11.6857 77.8835 15.0002 81.1668 19.0889 81.1668H70.9111C74.9998 81.1668 78.3143 77.8835 78.3143 73.8334V22.5001C78.3143 18.45 74.9998 15.1667 70.9111 15.1667Z" stroke="#008CDD" stroke-width="2" stroke-linecap="round" stroke-linejoin="round"/>
<path d="M59.8063 7.83325V22.4999" stroke="#008CDD" stroke-width="2" stroke-linecap="round" stroke-linejoin="round"/>
<path d="M30.1936 7.83325V22.4999" stroke="#008CDD" stroke-width="2" stroke-linecap="round" stroke-linejoin="round"/>
<path d="M11.6857 37.1667H78.3143" stroke="#008CDD" stroke-width="2" stroke-linecap="round" stroke-linejoin="round"/>
<path d="M45 46.6204L48.3073 53.2575L55.7033 54.3283L50.3516 59.4917L51.6146 66.7861L45 63.3404L38.3853 66.7861L39.6483 59.4917L34.2966 54.3283L41.6926 53.2575L45 46.6204Z" stroke="#008CDD" stroke-width="2" stroke-linecap="round" stroke-linejoin="round"/>
</svg>
