<svg width="40" height="40" viewBox="0 0 40 40" fill="none" xmlns="http://www.w3.org/2000/svg">
<rect width="40" height="40" fill="white"/>
<path d="M31.3571 12.9287C31.5179 12.9287 31.6786 12.8751 31.7857 12.768C31.8929 12.6609 32 12.5001 32 12.2859V10.5716C32 10.4109 31.8929 10.2501 31.7857 10.143C31.6786 10.0359 31.5179 9.92871 31.3571 9.92871H8.64286C8.42857 9.92871 8.26786 10.0359 8.16071 10.143C8.05357 10.2501 8 10.4109 8 10.5716V12.2859C8 12.5001 8.05357 12.6609 8.16071 12.768C8.26786 12.8751 8.42857 12.9287 8.64286 12.9287H31.3571ZM31.3571 21.5001C31.5179 21.5001 31.6786 21.4466 31.7857 21.3394C31.8929 21.2323 32 21.0716 32 20.8573V19.143C32 18.9823 31.8929 18.8216 31.7857 18.7144C31.6786 18.6073 31.5179 18.5001 31.3571 18.5001H8.64286C8.42857 18.5001 8.26786 18.6073 8.16071 18.7144C8.05357 18.8216 8 18.9823 8 19.143V20.8573C8 21.0716 8.05357 21.2323 8.16071 21.3394C8.26786 21.4466 8.42857 21.5001 8.64286 21.5001H31.3571ZM31.3571 30.0716C31.5179 30.0716 31.6786 30.018 31.7857 29.9109C31.8929 29.8037 32 29.643 32 29.4287V27.7144C32 27.5537 31.8929 27.393 31.7857 27.2859C31.6786 27.1787 31.5179 27.0716 31.3571 27.0716H8.64286C8.42857 27.0716 8.26786 27.1787 8.16071 27.2859C8.05357 27.393 8 27.5537 8 27.7144V29.4287C8 29.643 8.05357 29.8037 8.16071 29.9109C8.26786 30.018 8.42857 30.0716 8.64286 30.0716H31.3571Z" fill="#283A97"/>
</svg>
