<svg width="14" height="14" viewBox="0 0 14 14" fill="none" xmlns="http://www.w3.org/2000/svg">
<path d="M0.343095 0.384775C0.780994 -0.0560002 1.4933 -0.0583322 1.93408 0.379567L6.72265 5.13689L11.48 0.348326C11.9179 -0.09245 12.6302 -0.0947812 13.071 0.343118C13.5117 0.781018 13.5141 1.49332 13.0762 1.9341L8.31884 6.72267L13.1074 11.48C13.5482 11.9179 13.5505 12.6302 13.1126 13.071C12.6747 13.5117 11.9624 13.5141 11.5216 13.0762L6.73306 8.31886L1.97574 13.1074C1.53784 13.5482 0.825536 13.5505 0.38476 13.1126C-0.0560147 12.6747 -0.0583464 11.9624 0.379553 11.5216L5.13687 6.73308L0.348303 1.97576C-0.0924727 1.53786 -0.0948038 0.82555 0.343095 0.384775Z" fill="#827F7F"/>
</svg>
