<svg width="65" height="61" viewBox="0 0 65 61" fill="none" xmlns="http://www.w3.org/2000/svg">
<g clip-path="url(#clip0_1354_14220)" filter="url(#filter0_d_1354_14220)">
<path d="M32.0724 3.63086C16.6505 3.63086 4.07236 13.8027 4.07236 26.3809C4.07236 31.8496 6.36924 36.7715 10.3067 40.709C8.88486 46.1777 4.40049 51.0996 4.29111 51.0996C4.07236 51.4277 3.96299 51.7559 4.18174 52.084C4.29111 52.4121 4.61924 52.6309 4.94736 52.6309C12.1661 52.6309 17.6349 49.1309 20.3692 47.0527C23.8692 48.3652 27.9161 49.1309 32.0724 49.1309C47.4942 49.1309 60.0724 38.959 60.0724 26.3809C60.0724 13.8027 47.4942 3.63086 32.0724 3.63086ZM32.0724 47.3809C28.2442 47.3809 24.5255 46.7246 20.9161 45.4121L20.0411 44.9746L19.2755 45.6309C16.9786 47.3809 12.6036 50.2246 6.91611 50.7715C8.44736 48.8027 10.963 45.084 12.0567 41.1465L12.2755 40.1621L11.5099 39.3965C7.79111 35.6777 5.82236 31.1934 5.82236 26.3809C5.82236 14.7871 17.6349 5.38086 32.0724 5.38086C46.5099 5.38086 58.3224 14.7871 58.3224 26.3809C58.3224 37.9746 46.5099 47.3809 32.0724 47.3809ZM41.6974 21.1309H36.4474V15.8809C36.4474 14.8965 35.6817 14.1309 34.6974 14.1309H29.4474C28.463 14.1309 27.6974 14.8965 27.6974 15.8809V21.1309H22.4474C21.463 21.1309 20.6974 21.8965 20.6974 22.8809V28.1309C20.6974 29.1152 21.463 29.8809 22.4474 29.8809H27.6974V35.1309C27.6974 36.1152 28.463 36.8809 29.4474 36.8809H34.6974C35.6817 36.8809 36.4474 36.1152 36.4474 35.1309V29.8809H41.6974C42.6817 29.8809 43.4474 29.1152 43.4474 28.1309V22.8809C43.4474 21.8965 42.6817 21.1309 41.6974 21.1309ZM41.6974 28.1309H34.6974V35.1309H29.4474V28.1309H22.4474V22.8809H29.4474V15.8809H34.6974V22.8809H41.6974V28.1309Z" fill="#0066DE"/>
</g>
<defs>
<filter id="filter0_d_1354_14220" x="0.0722656" y="0.130859" width="64" height="64" filterUnits="userSpaceOnUse" color-interpolation-filters="sRGB">
<feFlood flood-opacity="0" result="BackgroundImageFix"/>
<feColorMatrix in="SourceAlpha" type="matrix" values="0 0 0 0 0 0 0 0 0 0 0 0 0 0 0 0 0 0 127 0" result="hardAlpha"/>
<feOffset dy="4"/>
<feGaussianBlur stdDeviation="2"/>
<feComposite in2="hardAlpha" operator="out"/>
<feColorMatrix type="matrix" values="0 0 0 0 0 0 0 0 0 0 0 0 0 0 0 0 0 0 0.25 0"/>
<feBlend mode="normal" in2="BackgroundImageFix" result="effect1_dropShadow_1354_14220"/>
<feBlend mode="normal" in="SourceGraphic" in2="effect1_dropShadow_1354_14220" result="shape"/>
</filter>
<clipPath id="clip0_1354_14220">
<rect width="56" height="56" fill="white" transform="translate(4.07227 0.130859)"/>
</clipPath>
</defs>
</svg>
