<svg width="57" height="50" viewBox="0 0 57 50" fill="none" xmlns="http://www.w3.org/2000/svg">
<path d="M34.859 17.8945C35.2965 18.0039 35.734 18.0039 36.0621 18.0039C39.1246 18.0039 42.1871 15.0508 43.3902 10.8945C44.7027 6.08203 42.9527 1.59766 39.6715 0.613281C39.234 0.503906 38.7965 0.503906 38.4683 0.503906C35.4058 0.503906 32.3433 3.45703 31.1402 7.61328C29.8277 12.4258 31.5777 16.9102 34.859 17.8945ZM32.7808 8.05078C33.7652 4.76953 36.1715 2.25391 38.4683 2.25391C38.6871 2.25391 38.9058 2.25391 39.1246 2.36328C40.2183 2.58203 40.8746 3.45703 41.2027 4.00391C42.1871 5.64453 42.2965 8.05078 41.7496 10.457C40.7652 13.7383 38.359 16.2539 36.0621 16.2539C35.8433 16.2539 35.6246 16.2539 35.4058 16.1445C34.3121 15.9258 33.6558 15.0508 33.3277 14.5039C32.3433 12.8633 32.234 10.457 32.7808 8.05078ZM52.0308 14.6133C51.5933 14.5039 51.2652 14.5039 50.8277 14.5039C47.984 14.5039 45.1402 16.8008 44.1558 20.082C43.0621 23.9102 44.7027 27.6289 47.8746 28.3945C48.3121 28.5039 48.6402 28.5039 49.0777 28.5039C51.9215 28.5039 54.7652 26.207 55.7496 22.9258C56.8433 19.0977 55.2027 15.3789 52.0308 14.6133ZM53.9996 22.3789C53.234 24.8945 51.1558 26.7539 49.0777 26.7539C48.859 26.7539 48.5308 26.7539 48.3121 26.6445C47.2183 26.4258 46.5621 25.6602 46.234 25.0039C45.4683 23.8008 45.359 22.2695 45.9058 20.6289C46.5621 18.1133 48.7496 16.2539 50.8277 16.2539C51.0465 16.2539 51.3746 16.2539 51.5933 16.3633C52.6871 16.582 53.3433 17.3477 53.6715 18.0039C54.4371 19.207 54.5465 20.7383 53.9996 22.3789ZM20.0933 18.0039C20.4215 18.0039 20.859 18.0039 21.2965 17.8945C24.5777 16.9102 26.3277 12.4258 25.0152 7.61328C23.9215 3.45703 20.7496 0.503906 17.6871 0.503906C17.359 0.503906 16.9215 0.503906 16.484 0.613281C13.2027 1.59766 11.4527 6.08203 12.7652 10.8945C13.9683 15.0508 17.0308 18.0039 20.0933 18.0039ZM14.9527 4.00391C15.2808 3.45703 15.9371 2.58203 17.0308 2.36328C17.2496 2.25391 17.4683 2.25391 17.6871 2.25391C19.984 2.25391 22.3902 4.76953 23.3746 8.05078C23.9215 10.457 23.8121 12.8633 22.8277 14.5039C22.4996 15.0508 21.8433 15.9258 20.7496 16.1445C20.5308 16.2539 20.3121 16.2539 20.0933 16.2539C17.7965 16.2539 15.3902 13.7383 14.4058 10.457C13.859 8.05078 13.9683 5.64453 14.9527 4.00391ZM8.28083 28.3945C11.4527 27.6289 13.0933 23.9102 11.9996 20.082C11.0152 16.8008 8.17146 14.5039 5.32771 14.5039C4.89021 14.5039 4.56208 14.5039 4.12458 14.6133C0.952706 15.3789 -0.68792 19.0977 0.40583 22.9258C1.39021 26.207 4.23396 28.5039 7.07771 28.5039C7.51521 28.5039 7.84333 28.5039 8.28083 28.3945ZM2.15583 22.3789C1.60896 20.7383 1.71833 19.207 2.48396 18.0039C2.81208 17.3477 3.46833 16.582 4.56208 16.3633C4.78083 16.2539 5.10896 16.2539 5.32771 16.2539C7.40583 16.2539 9.59333 18.1133 10.2496 20.6289C10.7965 22.2695 10.6871 23.8008 9.92146 25.0039C9.59333 25.6602 8.93708 26.4258 7.84333 26.6445C7.62458 26.7539 7.29646 26.7539 7.07771 26.7539C4.99958 26.7539 2.81208 24.8945 2.15583 22.3789ZM28.0777 21.5039C19.4371 21.5039 7.07771 34.957 7.07771 43.3789C7.07771 47.207 10.0308 49.5039 14.9527 49.5039C20.3121 49.5039 23.8121 46.7695 28.0777 46.7695C32.3433 46.7695 35.9527 49.5039 41.2027 49.5039C46.1246 49.5039 49.0777 47.207 49.0777 43.3789C49.0777 34.957 36.7183 21.5039 28.0777 21.5039ZM41.2027 47.7539C38.6871 47.7539 36.609 47.0977 34.5308 46.332C32.4527 45.6758 30.3746 45.0195 28.0777 45.0195C25.7808 45.0195 23.7027 45.6758 21.734 46.332C19.6558 47.0977 17.4683 47.7539 14.9527 47.7539C12.6558 47.7539 8.82771 47.207 8.82771 43.3789C8.82771 35.7227 20.7496 23.2539 28.0777 23.2539C35.4058 23.2539 47.3277 35.7227 47.3277 43.3789C47.3277 47.207 43.4996 47.7539 41.2027 47.7539Z" fill="#0066DE"/>
</svg>
