<svg width="64" height="57" viewBox="0 0 64 57" fill="none" xmlns="http://www.w3.org/2000/svg">
<g clip-path="url(#clip0_1354_14229)">
<path d="M36.2284 6.25586C25.0722 6.25586 16.5409 15.334 13.4784 19.1621L4.94719 11.834C4.18156 11.0684 2.97844 10.8496 1.99406 11.3965C1.00969 11.9434 0.353436 13.2559 0.681561 14.5684L3.63469 28.1309L0.572186 41.6934C0.353436 43.0059 1.00969 44.3184 2.10344 44.8652C2.97844 45.4121 4.18156 45.1934 4.94719 44.5371L13.4784 37.0996C16.5409 40.9277 25.0722 50.0059 36.2284 50.0059C51.6503 50.0059 63.5722 32.5059 63.5722 28.1309C63.5722 23.7559 51.6503 6.25586 36.2284 6.25586ZM36.2284 48.2559C25.0722 48.2559 16.6503 38.3027 14.3534 35.2402L13.8066 34.4746L3.74406 43.2246C3.41594 43.5527 3.08781 43.4434 2.86906 43.334C2.54094 43.1152 2.21281 42.6777 2.32219 42.0215L5.38469 28.1309L2.32219 14.2402C2.21281 13.584 2.54094 13.1465 2.86906 12.9277C3.08781 12.8184 3.41594 12.709 3.85344 13.1465L13.8066 21.7871L14.3534 21.0215C19.0566 14.6777 27.3691 8.00586 36.2284 8.00586C50.3378 8.00586 61.8222 24.1934 61.8222 28.1309C61.8222 32.0684 50.3378 48.2559 36.2284 48.2559ZM46.7284 18.7246C46.4003 18.3965 45.7441 18.3965 45.4159 18.7246L27.9159 36.2246C27.5878 36.5527 27.5878 37.209 27.9159 37.5371C28.1347 37.6465 28.3534 37.7559 28.5722 37.7559C28.7909 37.7559 29.0097 37.6465 29.2284 37.5371L46.7284 20.0371C47.0566 19.709 47.0566 19.0527 46.7284 18.7246ZM34.4784 16.9746C34.1503 16.6465 33.4941 16.6465 33.1659 16.9746L26.1659 23.9746C25.8378 24.3027 25.8378 24.959 26.1659 25.2871C26.3847 25.3965 26.6034 25.5059 26.8222 25.5059C27.0409 25.5059 27.2597 25.3965 27.4784 25.2871L34.4784 18.2871C34.8066 17.959 34.8066 17.3027 34.4784 16.9746ZM47.1659 30.9746L40.1659 37.9746C39.8378 38.3027 39.8378 38.959 40.1659 39.2871C40.3847 39.3965 40.6034 39.5059 40.8222 39.5059C41.0409 39.5059 41.2597 39.3965 41.4784 39.2871L48.4784 32.2871C48.8066 31.959 48.8066 31.3027 48.4784 30.9746C48.1503 30.6465 47.4941 30.6465 47.1659 30.9746Z" fill="#0066DE"/>
</g>
<defs>
<clipPath id="clip0_1354_14229">
<rect width="63" height="56" fill="white" transform="translate(0.572266 0.130859)"/>
</clipPath>
</defs>
</svg>
