<svg width="56" height="44" viewBox="0 0 56 44" fill="none" xmlns="http://www.w3.org/2000/svg">
<path d="M31.6943 0.125C21.7777 0.125 14.1943 9.20312 11.4721 13.0312L3.88879 5.70312C3.20824 4.9375 2.13879 4.71875 1.26379 5.26562C0.388791 5.8125 -0.194542 7.125 0.0971246 8.4375L2.72212 22L-9.76287e-05 35.5625C-0.194542 36.875 0.388791 38.1875 1.36101 38.7344C2.13879 39.2812 3.20824 39.0625 3.88879 38.4062L11.4721 30.9688C14.1943 34.7969 21.7777 43.875 31.6943 43.875C45.4027 43.875 55.9999 26.375 55.9999 22C55.9999 17.625 45.4027 0.125 31.6943 0.125ZM31.6943 42.125C21.7777 42.125 14.2916 32.1719 12.2499 29.1094L11.7638 28.3438L2.81935 37.0938C2.52768 37.4219 2.23601 37.3125 2.04157 37.2031C1.7499 36.9844 1.45824 36.5469 1.55546 35.8906L4.27768 22L1.55546 8.10938C1.45824 7.45312 1.7499 7.01562 2.04157 6.79688C2.23601 6.6875 2.52768 6.57812 2.91657 7.01562L11.7638 15.6562L12.2499 14.8906C16.4305 8.54688 23.8193 1.875 31.6943 1.875C44.236 1.875 54.4443 18.0625 54.4443 22C54.4443 25.9375 44.236 42.125 31.6943 42.125ZM41.0277 12.5938C40.736 12.2656 40.1527 12.2656 39.861 12.5938L24.3055 30.0938C24.0138 30.4219 24.0138 31.0781 24.3055 31.4062C24.4999 31.5156 24.6943 31.625 24.8888 31.625C25.0832 31.625 25.2777 31.5156 25.4721 31.4062L41.0277 13.9062C41.3193 13.5781 41.3193 12.9219 41.0277 12.5938ZM30.1388 10.8438C29.8471 10.5156 29.2638 10.5156 28.9721 10.8438L22.7499 17.8438C22.4582 18.1719 22.4582 18.8281 22.7499 19.1562C22.9443 19.2656 23.1388 19.375 23.3332 19.375C23.5277 19.375 23.7221 19.2656 23.9166 19.1562L30.1388 12.1562C30.4305 11.8281 30.4305 11.1719 30.1388 10.8438ZM41.4166 24.8438L35.1943 31.8438C34.9027 32.1719 34.9027 32.8281 35.1943 33.1562C35.3888 33.2656 35.5832 33.375 35.7777 33.375C35.9721 33.375 36.1666 33.2656 36.361 33.1562L42.5832 26.1562C42.8749 25.8281 42.8749 25.1719 42.5832 24.8438C42.2916 24.5156 41.7082 24.5156 41.4166 24.8438Z" fill="#0066DE"/>
</svg>
