<svg width="53" height="57" viewBox="0 0 53 57" fill="none" xmlns="http://www.w3.org/2000/svg">
<path d="M36.0486 33.2539C34.7361 33.2539 33.3142 33.8008 32.3299 34.7852L31.5642 35.5508L30.7986 34.7852C29.8142 33.8008 28.3924 33.2539 27.0799 33.2539C25.9861 33.2539 24.8924 33.582 23.908 34.3477C21.6111 36.207 21.5017 39.5977 23.5799 41.6758L30.6892 48.6758C30.908 48.8945 31.2361 49.0039 31.5642 49.0039C31.8924 49.0039 32.2205 48.8945 32.4392 48.6758L39.5486 41.6758C41.6267 39.5977 41.5174 36.207 39.2205 34.3477C38.2361 33.582 37.1424 33.2539 36.0486 33.2539ZM38.3455 40.3633L31.5642 47.0352L24.783 40.3633C24.1267 39.707 23.7986 38.9414 23.908 37.957C23.908 37.082 24.3455 36.3164 25.0017 35.6602C25.7674 35.1133 26.533 35.0039 27.0799 35.0039C27.9549 35.0039 28.9392 35.332 29.5955 36.0977L30.3611 36.7539L31.5642 37.957L32.7674 36.7539L33.533 36.0977C34.1892 35.4414 35.1736 35.0039 36.0486 35.0039C36.8142 35.0039 37.4705 35.2227 38.1267 35.6602C38.783 36.3164 39.2205 37.082 39.2205 37.957C39.3299 38.9414 39.0017 39.707 38.3455 40.3633ZM47.3142 10.5039C46.0017 10.5039 44.7986 11.0508 43.8142 11.8164V8.75391C43.8142 5.80078 41.408 3.50391 38.5642 3.50391C37.2517 3.50391 35.9392 4.05078 35.0642 4.81641C34.8455 2.19141 32.5486 0.00390625 29.8142 0.00390625C26.9705 0.00390625 24.5642 2.41016 24.5642 5.25391V16.1914C24.1267 13.6758 23.7986 11.3789 23.4705 9.84766C23.1424 7.00391 20.6267 4.92578 17.783 5.25391C16.4705 5.36328 15.158 6.12891 14.283 7.11328C13.5174 8.20703 13.0799 9.51953 13.1892 10.832L13.8455 16.4102C14.5017 22.5352 14.8299 28.6602 14.9392 34.7852L10.0174 28.4414C8.15799 26.0352 4.65799 25.4883 2.25174 27.3477C1.04862 28.2227 0.282994 29.5352 0.0642444 31.0664C-0.0451306 32.4883 0.282994 33.9102 1.15799 35.1133L11.7674 48.8945C14.9392 53.3789 19.9705 55.8945 25.3299 55.8945L34.1892 56.0039C44.3611 56.0039 52.5642 47.8008 52.5642 37.6289V15.7539C52.5642 12.8008 50.158 10.5039 47.3142 10.5039ZM50.8142 37.6289C50.8142 46.8164 43.3767 54.2539 34.1892 54.2539L25.3299 54.1445C20.5174 54.1445 16.033 51.8477 13.1892 47.9102L2.57987 34.0195C2.03299 33.2539 1.70487 32.2695 1.81424 31.2852C2.03299 30.3008 2.47049 29.3164 3.34549 28.7695C4.00174 28.2227 4.76737 28.0039 5.64237 28.0039C6.73612 28.0039 7.82987 28.4414 8.59549 29.4258L15.158 37.8477C15.3767 38.1758 15.8142 38.2852 16.1424 38.1758C16.4705 38.0664 16.6892 37.7383 16.6892 37.3008C16.6892 30.3008 16.3611 23.1914 15.5955 16.3008L14.9392 10.6133C14.8299 9.73828 15.158 8.97266 15.7049 8.20703C16.2517 7.55078 17.1267 7.11328 18.0017 7.00391C19.8611 6.78516 21.5017 8.20703 21.7205 10.0664C22.8142 15.3164 24.5642 28.0039 24.5642 28.1133C24.5642 28.5508 25.0017 28.8789 25.4392 28.8789C25.8767 28.7695 26.3142 28.4414 26.3142 28.0039V13.1289V5.25391C26.3142 3.28516 27.8455 1.75391 29.8142 1.75391C31.783 1.75391 33.3142 3.28516 33.3142 5.25391V28.0039C33.3142 28.4414 33.7517 28.8789 34.1892 28.8789C34.6267 28.8789 35.0642 28.4414 35.0642 28.0039V8.75391C35.0642 6.78516 36.5955 5.25391 38.5642 5.25391C40.533 5.25391 42.0642 6.78516 42.0642 8.75391V28.0039C42.0642 28.4414 42.5017 28.8789 42.9392 28.8789C43.3767 28.8789 43.8142 28.4414 43.8142 28.0039V15.7539C43.8142 13.7852 45.3455 12.2539 47.3142 12.2539C49.283 12.2539 50.8142 13.7852 50.8142 15.7539V37.6289Z" fill="#0066DE"/>
</svg>
