<svg width="25" height="24" viewBox="0 0 25 24" fill="none" xmlns="http://www.w3.org/2000/svg">
<path d="M0.0722656 12C0.0722656 5.37258 5.44485 0 12.0723 0C18.6997 0 24.0723 5.37258 24.0723 12C24.0723 18.6274 18.6997 24 12.0723 24C5.44485 24 0.0722656 18.6274 0.0722656 12Z" fill="white"/>
<path d="M18.2049 9.03661C18.0577 8.4711 17.6239 8.0258 17.0732 7.87466C16.0751 7.6 12.0724 7.6 12.0724 7.6C12.0724 7.6 8.06967 7.6 7.07149 7.87466C6.52073 8.0258 6.08698 8.4711 5.93978 9.03661C5.67236 10.0615 5.67236 12.2 5.67236 12.2C5.67236 12.2 5.67236 14.3384 5.93978 15.3634C6.08698 15.9289 6.52073 16.3742 7.07149 16.5254C8.06967 16.8 12.0724 16.8 12.0724 16.8C12.0724 16.8 16.0751 16.8 17.0732 16.5254C17.6239 16.3742 18.0577 15.9289 18.2049 15.3634C18.4724 14.3384 18.4724 12.2 18.4724 12.2C18.4724 12.2 18.4724 10.0615 18.2049 9.03661" fill="#0066DE"/>
<path d="M10.8723 14.4V10.4L14.0723 12.4001L10.8723 14.4Z" fill="white"/>
</svg>
