<svg width="26" height="25" viewBox="0 0 26 25" fill="none" xmlns="http://www.w3.org/2000/svg">
<path d="M15.2103 21.5678C15.5758 21.3568 15.8415 21.0075 15.9489 20.5967C16.0563 20.186 15.9967 19.7475 15.7831 19.3776L14.9779 17.983C14.7644 17.6131 14.4144 17.3422 14.005 17.2298C13.5956 17.1175 13.1602 17.1729 12.7948 17.3839C10.0388 18.9751 8.42842 16.1858 7.62323 14.7912C6.81804 13.3966 5.20767 10.6074 7.96365 9.01619C8.32911 8.80519 8.59478 8.4559 8.7022 8.04515C8.80962 7.63441 8.75 7.19586 8.53645 6.82599L7.73126 5.43137C7.51772 5.06149 7.16773 4.79058 6.75831 4.67824C6.34888 4.5659 5.91355 4.62132 5.54809 4.83232C2.10312 6.82128 0.84132 9.40927 4.86725 16.3824C8.89319 23.3555 11.7654 23.5567 15.2103 21.5678Z" stroke="#008CDD" stroke-width="2" stroke-linecap="round" stroke-linejoin="round"/>
<path d="M22.5442 15.8089C23.2762 13.004 22.8683 10.01 21.4103 7.48453C19.9522 4.95909 17.5632 3.10886 14.7681 2.34033M18.3252 14.6513C18.5433 13.8182 18.5956 12.9484 18.4792 12.0916C18.3628 11.2347 18.08 10.4075 17.6469 9.65734C17.2137 8.90715 16.6388 8.24862 15.955 7.71939C15.2711 7.19015 14.4917 6.80057 13.6612 6.5729M14.1289 13.4852C14.2753 12.9239 14.1936 12.3248 13.9019 11.8195C13.6101 11.3142 13.1322 10.9439 12.5729 10.7901" stroke="#008CDD" stroke-width="2" stroke-linecap="round" stroke-linejoin="round"/>
</svg>
