<svg width="17" height="17" viewBox="0 0 17 17" fill="none" xmlns="http://www.w3.org/2000/svg">
<path d="M16.4062 1.2605C16.5938 1.29175 16.7188 1.3855 16.8438 1.5105C16.9375 1.66675 17 1.823 17 1.97925C17 4.60425 16.3438 7.04175 15.0312 9.29175C13.7188 11.4792 12 13.2292 9.8125 14.5105C7.5625 15.823 5.125 16.4792 2.5 16.4792C2.3125 16.4792 2.15625 16.448 2.03125 16.323C1.875 16.2292 1.78125 16.073 1.78125 15.8855L1.03125 12.6355C0.96875 12.4792 1 12.323 1.09375 12.1355C1.15625 11.9792 1.28125 11.8542 1.46875 11.7917L4.96875 10.2917C5.09375 10.2292 5.25 10.2292 5.4375 10.2605C5.59375 10.2917 5.71875 10.3855 5.84375 10.5105L7.375 12.3855C8.59375 11.823 9.6875 11.073 10.625 10.1042C11.5625 9.16675 12.3438 8.073 12.9062 6.85425L11.0312 5.29175C10.9062 5.198 10.8125 5.073 10.7812 4.91675C10.7188 4.7605 10.75 4.60425 10.8125 4.41675L12.3125 0.916748C12.375 0.791748 12.4688 0.666748 12.6562 0.572998C12.8125 0.510498 12.9688 0.479248 13.1562 0.510498L16.4062 1.2605Z" fill="#898989"/>
</svg>
