<svg width="58" height="52" viewBox="0 0 58 52" fill="none" xmlns="http://www.w3.org/2000/svg">
<path d="M41.75 12.8811C40.8535 12.8811 40.1562 13.5783 40.1562 14.4748C40.1562 15.3713 40.8535 16.0686 41.75 16.0686C42.6465 16.0686 43.3438 15.3713 43.3438 14.4748C43.3438 13.5783 42.6465 12.8811 41.75 12.8811ZM57.1895 0.230661C56.8906 0.0314427 56.5918 0.131052 56.3926 0.330271L49.7188 6.50605H43.3438L36.6699 0.330271C36.4707 0.131052 36.1719 0.0314427 35.873 0.230661C35.5742 0.330271 35.375 0.629099 35.375 0.927927V16.0686C35.375 16.5666 35.4746 17.1643 35.5742 17.6623H29.7969C21.6289 17.6623 14.5566 22.6428 11.4688 29.8147V20.0529C11.4688 14.3752 6.78711 9.69355 1.10938 9.69355C0.710938 9.69355 0.3125 10.092 0.3125 10.4904C0.3125 10.8889 0.710938 11.2873 1.10938 11.2873C5.99023 11.2873 9.875 15.1721 9.875 20.0529V42.3654C9.875 47.2463 13.7598 51.1311 18.6406 51.1311H36.1719C36.5703 51.1311 36.9688 50.7326 36.9688 50.3342V47.1467C36.9688 44.9553 35.1758 43.1623 32.9844 43.1623H30.8926L40.9531 36.6877V47.9436C40.9531 49.7365 42.3477 51.1311 44.1406 51.1311H47.3281C49.1211 51.1311 50.5156 49.7365 50.5156 47.9436V26.4279C54.6992 24.8342 57.6875 20.8498 57.6875 16.0686V0.927927C57.6875 0.629099 57.4883 0.330271 57.1895 0.230661ZM48.9219 47.9436C48.9219 48.84 48.2246 49.5373 47.3281 49.5373H44.1406C43.2441 49.5373 42.5469 48.84 42.5469 47.9436V35.1936C42.5469 34.5959 41.8496 34.1975 41.3516 34.4963L29 42.465V41.5686C29 36.2893 24.7168 32.0061 19.4375 32.0061C19.0391 32.0061 18.6406 32.4045 18.6406 32.8029C18.6406 33.2014 19.0391 33.5998 19.4375 33.5998C23.8203 33.5998 27.4062 37.1857 27.4062 41.5686V43.9592C27.4062 44.3576 27.8047 44.7561 28.2031 44.7561H32.9844C34.2793 44.7561 35.375 45.8518 35.375 47.1467V49.5373H18.6406C14.6562 49.5373 11.4688 46.3498 11.4688 42.3654V37.5842C11.4688 27.5236 19.7363 19.2561 29.7969 19.2561H35.873C37.2676 23.8381 41.4512 27.2248 46.5312 27.2248C47.3281 27.2248 48.125 27.1252 48.9219 26.926V47.9436ZM56.0938 16.0686C56.0938 21.3479 51.8105 25.6311 46.5312 25.6311C41.252 25.6311 36.9688 21.3479 36.9688 16.0686V2.7209L42.5469 7.90058C42.6465 8.00019 42.8457 8.0998 43.0449 8.0998H50.0176C50.2168 8.0998 50.416 8.00019 50.5156 7.90058L56.0938 2.7209V16.0686ZM49.7188 14.4748C49.7188 15.3713 50.416 16.0686 51.3125 16.0686C52.209 16.0686 52.9062 15.3713 52.9062 14.4748C52.9062 13.5783 52.209 12.8811 51.3125 12.8811C50.416 12.8811 49.7188 13.5783 49.7188 14.4748Z" fill="#008CDD"/>
</svg>
