<svg width="17" height="13" viewBox="0 0 17 13" fill="none" xmlns="http://www.w3.org/2000/svg">
<path d="M15.7236 4.71875C14.9736 5.3125 13.3486 6.5 10.9111 8.25L10.5986 8.5C10.0986 8.875 9.72363 9.15625 9.41113 9.3125C8.91113 9.625 8.44238 9.75 8.03613 9.75C7.59863 9.75 7.16113 9.625 6.66113 9.34375C6.34863 9.1875 5.97363 8.90625 5.47363 8.53125L5.16113 8.25C2.62988 6.4375 1.03613 5.25 0.348633 4.71875C0.286133 4.6875 0.192383 4.6875 0.129883 4.71875C0.0673828 4.75 0.0361328 4.8125 0.0361328 4.875V11.25C0.0361328 11.6875 0.161133 12.0312 0.473633 12.3125C0.754883 12.625 1.09863 12.75 1.53613 12.75H14.5361C14.9424 12.75 15.2861 12.625 15.5986 12.3125C15.8799 12.0312 16.0361 11.6875 16.0361 11.25V4.875C16.0361 4.8125 15.9736 4.75 15.9111 4.6875C15.8486 4.65625 15.7861 4.65625 15.7236 4.71875ZM8.03613 8.75C7.75488 8.75 7.41113 8.625 7.03613 8.375C6.78613 8.25 6.47363 8.03125 6.06738 7.6875L5.75488 7.46875C3.19238 5.59375 1.44238 4.3125 0.536133 3.59375L0.317383 3.4375C0.129883 3.3125 0.0361328 3.09375 0.0361328 2.84375V2.25C0.0361328 1.84375 0.161133 1.5 0.473633 1.1875C0.754883 0.90625 1.09863 0.75 1.53613 0.75H14.5361C14.9424 0.75 15.2861 0.90625 15.5986 1.1875C15.8799 1.5 16.0361 1.84375 16.0361 2.25V2.84375C16.0361 3.09375 15.9424 3.3125 15.7549 3.4375L15.5986 3.5625C14.6924 4.28125 12.9424 5.59375 10.3174 7.46875L10.0049 7.6875C9.56738 8.03125 9.25488 8.25 9.03613 8.375C8.62988 8.625 8.28613 8.75 8.03613 8.75Z" fill="#008CDD"/>
</svg>
