<svg width="100" height="81" viewBox="0 0 100 81" fill="none" xmlns="http://www.w3.org/2000/svg">
<path d="M98.75 10.313C99.375 10.313 99.6875 10.6255 99.8438 11.2505C100 11.8755 99.8438 12.3442 99.375 12.6567L85 18.2817V28.438C85 30.1567 84.5312 31.7192 83.5938 32.9692C82.6562 34.2192 81.4062 35.1567 80 35.6255L75.9375 36.8755C74.8438 37.3442 73.5938 37.5005 72.3438 37.188C70.1562 37.0317 68.5938 35.938 67.3438 34.063L65 30.6255V38.438C65 43.2817 63.2812 47.5005 60 50.938V75.313C60 76.7192 59.375 77.9692 58.4375 78.9067C57.5 79.8442 56.25 80.313 55 80.313H45C43.5938 80.313 42.3438 79.8442 41.4062 78.9067C40.4688 77.9692 40 76.7192 40 75.313V54.063L31.875 52.3442L28.9062 60.7817L32.3438 74.063C32.6562 75.6255 32.1875 77.188 31.25 78.438C30.3125 79.688 29.0625 80.313 27.5 80.313H18.4375C17.1875 80.313 16.25 80.0005 15.3125 79.2192C14.375 78.5942 13.75 77.6567 13.5938 76.4067L10.3125 62.813C9.84375 61.0942 9.84375 59.3755 10.4688 57.6567L13.9062 46.0942C11.25 43.2817 10 39.8442 10 35.7817C10 35.1567 10 34.2192 10.3125 33.1255C8.75 33.7505 7.34375 34.688 6.40625 35.938C5.46875 37.188 5 38.7505 5 40.313V49.063C5 49.3755 4.84375 49.688 4.53125 50.0005C4.21875 50.313 4.0625 50.313 3.75 50.313H1.25C0.9375 50.313 0.625 50.313 0.3125 50.0005C0 49.688 0 49.3755 0 49.063V40.313C0 36.8755 1.09375 34.063 3.59375 31.563C5.9375 29.2192 8.90625 27.9692 12.3438 27.813C13.125 26.563 14.2188 25.313 15.4688 24.063C15.7812 25.7817 16.4062 27.5005 17.3438 29.3755C15.7812 31.2505 15 33.438 15 35.7817C15 37.6567 15.3125 39.2192 16.25 40.7817C17.0312 42.3442 18.125 43.5942 19.5312 44.5317L15.1562 59.063C14.8438 60.0005 14.8438 60.7817 15.1562 61.563L18.4375 75.313H27.5L23.5938 60.4692L28.75 46.4067L45 50.1567V75.313H55V48.7505C56.5625 47.5005 57.6562 46.0942 58.5938 44.2192C59.5312 42.5005 60 40.6255 60 38.438V22.813L67.5 25.313L71.4062 31.2505C71.7188 31.563 72.0312 31.8755 72.5 32.188C72.9688 32.5005 73.5938 32.5005 74.375 32.188L78.2812 30.7817C78.75 30.7817 79.2188 30.4692 79.5312 30.0005C79.8438 29.5317 80 29.063 80 28.438V13.7505L76.875 9.84424C77.6562 9.53174 78.2812 9.06299 78.9062 8.12549C79.5312 7.34424 79.8438 6.40674 79.8438 5.31299H62.5C58.2812 5.31299 54.6875 6.87549 51.875 9.68799C48.9062 12.6567 47.5 16.2505 47.5 20.313V25.313C42.8125 25.313 38.5938 24.2192 35 21.8755C31.4062 19.688 28.4375 16.2505 26.25 11.8755C25.3125 14.3755 25 16.7192 25 19.2192C25 23.9067 26.5625 28.2817 29.6875 32.0317C32.8125 35.938 36.875 38.438 41.7188 39.688C42.0312 39.688 42.3438 39.8442 42.5 40.1567C42.6562 40.4692 42.8125 40.7817 42.8125 41.0942L42.3438 43.5942C42.1875 43.9067 42.0312 44.2192 41.7188 44.3755C41.4062 44.688 41.0938 44.688 40.7812 44.5317C34.8438 43.1255 29.8438 40.0005 25.9375 35.313C21.875 30.6255 20 25.1567 20 19.2192C20 15.1567 20.7812 11.2505 22.6562 7.50049C23.2812 6.09424 24.375 5.31299 26.25 5.31299C26.875 5.31299 27.6562 5.62549 28.2812 5.93799C28.9062 6.40674 29.5312 7.03174 29.8438 7.65674C32.6562 14.2192 36.875 18.2817 42.5 19.688C42.5 16.2505 43.4375 12.9692 45.3125 10.0005C47.1875 7.03174 49.5312 4.68799 52.6562 2.96924C55.625 1.25049 58.9062 0.312988 62.5 0.312988H79.8438C81.0938 0.312988 82.3438 0.937988 83.2812 1.87549C84.2188 2.81299 84.8438 4.06299 84.8438 5.31299C84.8438 7.18799 84.375 8.75049 83.5938 10.313H98.75ZM72.5 15.313C72.5 16.0942 72.1875 16.7192 71.7188 17.188C71.25 17.6567 70.625 17.813 70 17.813C69.2188 17.813 68.5938 17.6567 68.125 17.188C67.6562 16.7192 67.5 16.0942 67.5 15.313C67.5 14.688 67.6562 14.063 68.125 13.5942C68.5938 13.1255 69.2188 12.813 70 12.813C70.625 12.813 71.25 13.1255 71.7188 13.5942C72.1875 14.063 72.5 14.688 72.5 15.313Z" fill="#008CDD"/>
</svg>
