<svg width="90" height="81" viewBox="0 0 90 81" fill="none" xmlns="http://www.w3.org/2000/svg">
<path d="M67.5 20.313C68.125 20.313 68.75 20.6255 69.2188 21.0942C69.6875 21.563 70 22.188 70 22.813C70 23.5942 69.6875 24.2192 69.2188 24.688C68.75 25.1567 68.125 25.313 67.5 25.313C66.7188 25.313 66.0938 25.1567 65.625 24.688C65.1562 24.2192 65 23.5942 65 22.813C65 22.188 65.1562 21.563 65.625 21.0942C66.0938 20.6255 66.7188 20.313 67.5 20.313ZM75 22.813C75 22.188 75.1562 21.563 75.625 21.0942C76.0938 20.6255 76.7188 20.313 77.5 20.313C78.125 20.313 78.75 20.6255 79.2188 21.0942C79.6875 21.563 80 22.188 80 22.813C80 23.5942 79.6875 24.2192 79.2188 24.688C78.75 25.1567 78.125 25.313 77.5 25.313C76.7188 25.313 76.0938 25.1567 75.625 24.688C75.1562 24.2192 75 23.5942 75 22.813ZM85 0.312988C86.25 0.312988 87.5 0.937988 88.4375 1.87549C89.375 2.81299 90 4.06299 90 5.31299V25.313C90 28.7505 89.0625 31.8755 87.1875 34.688C85.3125 37.5005 82.9688 39.688 80 41.0942V75.313C80 76.7192 79.375 77.9692 78.4375 78.9067C77.5 79.8442 76.25 80.313 75 80.313H70C68.5938 80.313 67.3438 79.8442 66.4062 78.9067C65.4688 77.9692 65 76.7192 65 75.313V59.2192L51.0938 65.313C53.5938 65.6255 55.625 66.7192 57.3438 68.5942C59.0625 70.4692 60 72.813 60 75.313C60 76.7192 59.375 77.9692 58.4375 78.9067C57.5 79.8442 56.25 80.313 55 80.313H22.5C19.0625 80.313 16.0938 79.2192 13.5938 76.7192C11.0938 74.2192 10 71.2505 10 67.813V27.813C10 25.7817 9.21875 24.063 7.8125 22.5005C6.25 21.0942 4.53125 20.313 2.5 20.313C1.71875 20.313 1.09375 20.1567 0.625 19.688C0.15625 19.2192 0 18.5942 0 17.813C0 17.188 0.15625 16.563 0.625 16.0942C1.09375 15.6255 1.71875 15.313 2.5 15.313C5.9375 15.313 8.75 16.563 11.25 19.063C13.75 21.563 15 24.3755 15 27.813V47.813C18.5938 41.0942 23.75 35.6255 30.4688 31.563C37.0312 27.5005 44.375 25.313 52.5 25.313H55V5.31299C55 4.06299 55.4688 2.81299 56.4062 1.87549C57.3438 0.937988 58.5938 0.312988 60.1562 0.312988C61.5625 0.312988 62.8125 0.937988 63.9062 2.18799L70.625 10.313H74.375L81.0938 2.18799C82.0312 0.937988 83.4375 0.312988 85 0.312988ZM75 75.313V42.5005L74.8438 42.6567C73.75 42.813 72.9688 42.813 72.5 42.813C68.5938 42.813 65.1562 41.7192 62.0312 39.3755C58.9062 37.0317 56.875 34.063 55.7812 30.313H52.5C45.625 30.313 39.375 32.0317 33.75 35.4692C27.9688 38.9067 23.4375 43.438 20 49.063C16.5625 54.8442 15 61.0942 15 67.813C15 70.0005 15.625 71.7192 17.1875 73.1255C18.5938 74.688 20.3125 75.313 22.5 75.313H55C55 74.063 54.375 72.813 53.4375 71.8755C52.5 70.938 51.25 70.313 50 70.313H42.5V63.1255C42.5 60.938 41.7188 58.9067 40.4688 57.0317C39.2188 55.1567 37.5 53.9067 35.4688 53.1255C35.1562 53.1255 34.8438 52.813 34.6875 52.5005C34.5312 52.188 34.5312 51.8755 34.6875 51.563L35.3125 49.2192C35.3125 48.9067 35.625 48.5942 35.9375 48.438C36.25 48.2817 36.5625 48.2817 36.875 48.2817C39.6875 49.2192 42.1875 50.938 44.0625 53.2817C45.9375 55.7817 47.0312 58.438 47.3438 61.563L70 51.4067V75.313H75ZM85 25.313V5.31299L76.7188 15.313H68.2812L60 5.31299V25.313C60 28.7505 61.0938 31.7192 63.5938 34.2192C66.0938 36.7192 69.0625 37.813 72.5 37.813C75.9375 37.813 78.75 36.7192 81.25 34.2192C83.75 31.7192 85 28.7505 85 25.313Z" fill="#008CDD"/>
</svg>
