<svg width="18" height="20" viewBox="0 0 18 20" fill="none" xmlns="http://www.w3.org/2000/svg">
<path d="M14 5H17.75V16.875C17.75 17.7344 17.4375 18.4766 16.8125 19.1016C16.1875 19.7266 15.4844 20 14.625 20H3.375C2.51562 20 1.77344 19.7266 1.14844 19.1016C0.523438 18.4766 0.25 17.7344 0.25 16.875V5H4C4 4.10156 4.19531 3.28125 4.66406 2.5C5.09375 1.71875 5.67969 1.13281 6.46094 0.664062C7.24219 0.234375 8.0625 0 9 0C9.89844 0 10.7188 0.234375 11.5 0.664062C12.2812 1.13281 12.8672 1.71875 13.3359 2.5C13.7656 3.28125 14 4.10156 14 5ZM9 1.875C8.14062 1.875 7.39844 2.1875 6.77344 2.8125C6.14844 3.4375 5.875 4.14062 5.875 5H12.125C12.125 4.14062 11.8125 3.4375 11.1875 2.8125C10.5625 2.1875 9.85938 1.875 9 1.875ZM15.875 16.875V6.875H14V8.4375C14 8.71094 13.8828 8.94531 13.7266 9.10156C13.5312 9.29688 13.2969 9.375 13.0625 9.375C12.7891 9.375 12.5547 9.29688 12.3984 9.10156C12.2031 8.94531 12.125 8.71094 12.125 8.4375V6.875H5.875V8.4375C5.875 8.71094 5.75781 8.94531 5.60156 9.10156C5.40625 9.29688 5.17188 9.375 4.9375 9.375C4.66406 9.375 4.42969 9.29688 4.27344 9.10156C4.07812 8.94531 4 8.71094 4 8.4375V6.875H2.125V16.875C2.125 17.2266 2.24219 17.5391 2.47656 17.7734C2.71094 18.0078 3.02344 18.125 3.375 18.125H14.625C14.9375 18.125 15.25 18.0078 15.4844 17.7734C15.7188 17.5391 15.875 17.2266 15.875 16.875Z" fill="black"/>
</svg>
