<svg width="58" height="52" viewBox="0 0 58 52" fill="none" xmlns="http://www.w3.org/2000/svg">
<path d="M49.7188 6.50586C48.8223 6.50586 48.125 7.20312 48.125 8.09961C48.125 8.99609 48.8223 9.69336 49.7188 9.69336C50.6152 9.69336 51.3125 8.99609 51.3125 8.09961C51.3125 7.20312 50.6152 6.50586 49.7188 6.50586ZM57.6875 8.29883C57.6875 7.30273 57.2891 6.40625 56.5918 5.70898L55.8945 4.91211C56.791 4.11523 57.3887 3.11914 57.6875 2.02344C57.7871 1.52539 57.5879 1.12695 57.2891 0.728516C56.9902 0.330078 56.5918 0.130859 56.0938 0.130859H43.7422C36.8691 0.130859 30.9922 5.9082 30.5938 12.8809H29.7969C20.9316 12.6816 19.1387 4.31445 19.0391 3.91602C18.9395 3.61719 18.7402 3.31836 18.3418 3.31836C18.043 3.31836 17.7441 3.41797 17.5449 3.81641C17.4453 4.01562 15.5527 8.19922 15.4531 12.9805C12.9629 13.1797 10.7715 14.2754 9.17773 16.0684H7.68359C7.58398 16.0684 7.48438 16.0684 7.48438 16.0684C3.5 16.0684 0.3125 19.2559 0.3125 23.2402V31.209C0.3125 31.6074 0.710938 32.0059 1.10938 32.0059C1.50781 32.0059 1.90625 31.6074 1.90625 31.209V23.2402C1.90625 20.1523 4.39648 17.6621 7.48438 17.6621H7.98242C7.18555 19.0566 6.6875 20.6504 6.6875 22.4434C6.6875 25.332 8.08203 27.9219 10.0742 29.7148L8.97852 31.9062C7.08594 35.6914 6.6875 36.3887 6.6875 38.082C6.6875 38.5801 6.78711 39.2773 6.88672 39.7754L9.27734 49.3379C9.57617 50.334 10.5723 51.1309 11.5684 51.1309H17.8438C18.541 51.1309 19.2383 50.832 19.7363 50.2344C20.1348 49.6367 20.334 48.8398 20.1348 48.1426L17.1465 38.4805L19.8359 32.9023L31.3906 35.791V48.7402C31.3906 50.0352 32.4863 51.1309 33.7812 51.1309H39.3594C40.6543 51.1309 41.75 50.0352 41.75 48.7402V32.7031C43.7422 31.0098 44.9375 28.4199 44.9375 25.6309V15.2715L45.5352 15.4707L47.2285 18.8574C47.8262 20.1523 49.2207 20.9492 50.7148 20.9492C51.1133 20.9492 51.6113 20.8496 52.1094 20.6504L55.1973 19.4551C56.5918 18.8574 57.6875 17.2637 57.6875 15.7695V8.29883ZM54.6992 17.9609L51.5117 19.1562C50.416 19.6543 49.1211 19.1562 48.623 18.0605L46.9297 14.7734C46.6309 14.0762 45.0371 13.1797 44.041 13.9766C43.6426 14.2754 43.3438 14.7734 43.3438 15.2715V25.6309C43.3438 27.9219 42.3477 30.0137 40.6543 31.5078C40.3555 31.8066 40.1562 32.3047 40.1562 32.7031V48.7402C40.1562 49.1387 39.7578 49.5371 39.3594 49.5371H33.7812C33.3828 49.5371 32.9844 49.1387 32.9844 48.7402V35.791C32.9844 35.0938 32.4863 34.4961 31.7891 34.2969L20.2344 31.4082C19.6367 31.209 18.8398 31.5078 18.4414 32.2051L15.6523 37.7832C15.4531 38.082 15.4531 38.5801 15.5527 38.8789L18.6406 48.541C18.7402 49.1387 18.3418 49.5371 17.8438 49.5371H11.5684C11.2695 49.5371 10.8711 49.2383 10.8711 48.9395L8.48047 39.377C8.38086 39.0781 8.28125 38.4805 8.28125 38.082C8.28125 36.7871 8.48047 36.3887 10.4727 32.6035L11.5684 30.4121C11.8672 29.8145 11.668 29.0176 11.1699 28.5195C9.27734 26.9258 8.28125 24.7344 8.28125 22.4434C8.28125 18.2598 11.4688 14.873 15.5527 14.5742C15.6523 15.9688 15.9512 17.4629 16.8477 19.3555C18.8398 23.041 22.7246 25.4316 28.4023 26.4277H28.502C28.9004 26.4277 29.1992 26.1289 29.2988 25.7305C29.3984 25.332 29.0996 24.9336 28.6016 24.834C23.5215 23.9375 20.0352 21.8457 18.2422 18.5586C16.1504 14.4746 17.2461 9.19531 18.2422 6.40625C19.4375 9.39453 22.625 14.375 29.7969 14.4746H32.1875V12.9805C32.5859 6.80469 37.7656 1.72461 43.7422 1.72461H56.0938C55.8945 2.52148 55.4961 3.21875 54.8984 3.7168C54.1016 4.41406 54.2012 5.41016 54.7988 6.00781C55.4961 6.80469 56.0938 7.20312 56.0938 8.29883V15.7695C56.0938 16.666 55.3965 17.6621 54.6992 17.9609Z" fill="#008CDD"/>
</svg>
