<svg width="80" height="76" viewBox="0 0 80 76" fill="none" xmlns="http://www.w3.org/2000/svg">
<path d="M77.5 10.313C78.125 10.313 78.75 10.6255 79.2188 11.0942C79.6875 11.563 80 12.188 80 12.813V22.813C80 25.6255 78.9062 28.1255 77.0312 30.0005C75.1562 31.8755 72.8125 32.813 70 32.813H65V70.313C65 71.7192 64.375 72.9692 63.4375 73.9067C62.5 74.8442 61.25 75.313 60 75.313H50C48.5938 75.313 47.3438 74.8442 46.4062 73.9067C45.4688 72.9692 45 71.7192 45 70.313V55.313H30V70.313C30 71.7192 29.375 72.9692 28.4375 73.9067C27.5 74.8442 26.25 75.313 25 75.313H15C13.5938 75.313 12.3438 74.8442 11.4062 73.9067C10.4688 72.9692 10 71.7192 10 70.313V45.313C10 42.813 10.625 40.313 12.0312 37.813C8.59375 37.813 5.78125 36.563 3.4375 34.063C1.09375 31.563 0 28.7505 0 25.313C0 24.688 0.15625 24.063 0.625 23.5942C1.09375 23.1255 1.71875 22.813 2.5 22.813C3.125 22.813 3.75 23.1255 4.21875 23.5942C4.6875 24.063 5 24.688 5 25.313C5 27.5005 5.625 29.2192 7.1875 30.6255C8.59375 32.188 10.3125 32.813 12.5 32.813H16.7188C19.2188 31.2505 21.875 30.313 25 30.313H42.5V2.81299C42.5 2.18799 42.6562 1.56299 43.2812 1.09424C43.75 0.625488 44.375 0.312988 45 0.312988C45.625 0.312988 46.25 0.625488 46.7188 1.09424L51.0938 5.31299H61.875C62.8125 5.31299 63.5938 5.62549 64.5312 6.09424C65.3125 6.71924 65.9375 7.34424 66.4062 8.12549L67.5 10.313H77.5ZM60 70.313V39.3755L43.4375 35.313H25C22.1875 35.313 19.8438 36.4067 17.9688 38.2817C15.9375 40.313 15 42.6567 15 45.313V70.313H25V50.313H50V70.313H60ZM75 22.813V15.313H64.375L61.875 10.313H48.9062L47.5 8.90674V31.2505L60 34.3755V27.813H70C71.25 27.813 72.5 27.3442 73.4375 26.4067C74.375 25.4692 75 24.2192 75 22.813ZM57.5 15.313C58.125 15.313 58.75 15.6255 59.2188 16.0942C59.6875 16.563 60 17.188 60 17.813C60 18.5942 59.6875 19.2192 59.2188 19.688C58.75 20.1567 58.125 20.313 57.5 20.313C56.7188 20.313 56.0938 20.1567 55.625 19.688C55.1562 19.2192 55 18.5942 55 17.813C55 17.188 55.1562 16.563 55.625 16.0942C56.0938 15.6255 56.7188 15.313 57.5 15.313Z" fill="#008CDD"/>
</svg>
