<svg width="26" height="25" viewBox="0 0 26 25" fill="none" xmlns="http://www.w3.org/2000/svg">
<path d="M15.1742 21.2929C15.5397 21.0819 15.8053 20.7326 15.9127 20.3219C16.0202 19.9112 15.9605 19.4726 15.747 19.1027L14.9418 17.7081C14.7283 17.3382 14.3783 17.0673 13.9689 16.955C13.5594 16.8426 13.1241 16.8981 12.7586 17.1091C10.0027 18.7002 8.39229 15.911 7.5871 14.5164C6.78191 13.1217 5.17154 10.3325 7.92752 8.74133C8.29298 8.53033 8.55865 8.18104 8.66607 7.7703C8.77349 7.35955 8.71387 6.92101 8.50032 6.55113L7.69513 5.15651C7.48158 4.78663 7.1316 4.51572 6.72218 4.40338C6.31275 4.29104 5.87742 4.34647 5.51196 4.55747C2.06698 6.54642 0.805187 9.13441 4.83112 16.1075C8.85705 23.0806 11.7292 23.2819 15.1742 21.2929Z" stroke="#898989" stroke-width="2" stroke-linecap="round" stroke-linejoin="round"/>
<path d="M22.5071 15.5339C23.2391 12.729 22.8312 9.73497 21.3732 7.20954C19.9151 4.6841 17.5261 2.83386 14.731 2.06533M18.2881 14.3763C18.5062 13.5432 18.5585 12.6734 18.4421 11.8166C18.3257 10.9597 18.0429 10.1325 17.6098 9.38235C17.1766 8.63215 16.6017 7.97363 15.9178 7.44439C15.234 6.91515 14.4545 6.52557 13.6241 6.29791M14.0918 13.2102C14.2382 12.6489 14.1565 12.0498 13.8648 11.5445C13.573 11.0392 13.095 10.669 12.5358 10.5151" stroke="#898989" stroke-width="2" stroke-linecap="round" stroke-linejoin="round"/>
</svg>
