<svg width="17" height="17" viewBox="0 0 17 17" fill="none" xmlns="http://www.w3.org/2000/svg">
<path d="M15.4424 1.53125C15.6299 1.5625 15.7549 1.65625 15.8799 1.78125C15.9736 1.9375 16.0361 2.09375 16.0361 2.25C16.0361 4.875 15.3799 7.3125 14.0674 9.5625C12.7549 11.75 11.0361 13.5 8.84863 14.7812C6.59863 16.0938 4.16113 16.75 1.53613 16.75C1.34863 16.75 1.19238 16.7188 1.06738 16.5938C0.911133 16.5 0.817383 16.3438 0.817383 16.1562L0.0673828 12.9062C0.00488281 12.75 0.0361328 12.5938 0.129883 12.4062C0.192383 12.25 0.317383 12.125 0.504883 12.0625L4.00488 10.5625C4.12988 10.5 4.28613 10.5 4.47363 10.5312C4.62988 10.5625 4.75488 10.6562 4.87988 10.7812L6.41113 12.6562C7.62988 12.0938 8.72363 11.3438 9.66113 10.375C10.5986 9.4375 11.3799 8.34375 11.9424 7.125L10.0674 5.5625C9.94238 5.46875 9.84863 5.34375 9.81738 5.1875C9.75488 5.03125 9.78613 4.875 9.84863 4.6875L11.3486 1.1875C11.4111 1.0625 11.5049 0.9375 11.6924 0.84375C11.8486 0.78125 12.0049 0.75 12.1924 0.78125L15.4424 1.53125Z" fill="#008CDD"/>
</svg>
