<svg width="15" height="17" viewBox="0 0 15 17" fill="none" xmlns="http://www.w3.org/2000/svg">
<path d="M0.0361328 15.25V6.75H14.0361V15.25C14.0361 15.6875 13.8799 16.0312 13.5986 16.3125C13.2861 16.625 12.9424 16.75 12.5361 16.75H1.53613C1.09863 16.75 0.754883 16.625 0.473633 16.3125C0.161133 16.0312 0.0361328 15.6875 0.0361328 15.25ZM2.03613 9.25V12.25C2.03613 12.4062 2.06738 12.5312 2.16113 12.625C2.25488 12.7188 2.37988 12.75 2.53613 12.75H5.53613C5.66113 12.75 5.78613 12.7188 5.87988 12.625C5.97363 12.5312 6.03613 12.4062 6.03613 12.25V9.25C6.03613 9.125 5.97363 9 5.87988 8.90625C5.78613 8.8125 5.66113 8.75 5.53613 8.75H2.53613C2.37988 8.75 2.25488 8.8125 2.16113 8.90625C2.06738 9 2.03613 9.125 2.03613 9.25ZM12.5361 2.75C12.9424 2.75 13.2861 2.90625 13.5986 3.1875C13.8799 3.5 14.0361 3.84375 14.0361 4.25V5.75H0.0361328V4.25C0.0361328 3.84375 0.161133 3.5 0.473633 3.1875C0.754883 2.90625 1.09863 2.75 1.53613 2.75H3.03613V1.25C3.03613 1.125 3.06738 1 3.16113 0.90625C3.25488 0.8125 3.37988 0.75 3.53613 0.75H4.53613C4.66113 0.75 4.78613 0.8125 4.87988 0.90625C4.97363 1 5.03613 1.125 5.03613 1.25V2.75H9.03613V1.25C9.03613 1.125 9.06738 1 9.16113 0.90625C9.25488 0.8125 9.37988 0.75 9.53613 0.75H10.5361C10.6611 0.75 10.7861 0.8125 10.8799 0.90625C10.9736 1 11.0361 1.125 11.0361 1.25V2.75H12.5361Z" fill="#008CDD"/>
</svg>
