<svg width="52" height="45" viewBox="0 0 52 45" fill="none" xmlns="http://www.w3.org/2000/svg">
<path d="M32.1759 16.1562C32.5744 16.2559 32.9728 16.2559 33.2716 16.2559C36.0607 16.2559 38.8497 13.5664 39.9454 9.78125C41.1408 5.39844 39.547 1.31445 36.5587 0.417969C36.1603 0.318359 35.7619 0.318359 35.463 0.318359C32.674 0.318359 29.8849 3.00781 28.7892 6.79297C27.5939 11.1758 29.1876 15.2598 32.1759 16.1562ZM30.2833 7.19141C31.1798 4.20312 33.3712 1.91211 35.463 1.91211C35.6622 1.91211 35.8615 1.91211 36.0607 2.01172C37.0568 2.21094 37.6544 3.00781 37.9533 3.50586C38.8497 5 38.9494 7.19141 38.4513 9.38281C37.5548 12.3711 35.3634 14.6621 33.2716 14.6621C33.0724 14.6621 32.8732 14.6621 32.674 14.5625C31.6779 14.3633 31.0802 13.5664 30.7814 13.0684C29.8849 11.5742 29.7853 9.38281 30.2833 7.19141ZM47.8146 13.168C47.4161 13.0684 47.1173 13.0684 46.7189 13.0684C44.129 13.0684 41.5392 15.1602 40.6427 18.1484C39.6466 21.6348 41.1408 25.0215 44.0294 25.7188C44.4279 25.8184 44.7267 25.8184 45.1251 25.8184C47.715 25.8184 50.3048 23.7266 51.2013 20.7383C52.1974 17.252 50.7033 13.8652 47.8146 13.168ZM49.6076 20.2402C48.9103 22.5312 47.0177 24.2246 45.1251 24.2246C44.9259 24.2246 44.6271 24.2246 44.4279 24.125C43.4318 23.9258 42.8341 23.2285 42.5353 22.6309C41.838 21.5352 41.7384 20.1406 42.2365 18.6465C42.8341 16.3555 44.8263 14.6621 46.7189 14.6621C46.9181 14.6621 47.2169 14.6621 47.4161 14.7617C48.4122 14.9609 49.0099 15.6582 49.3087 16.2559C50.006 17.3516 50.1056 18.7461 49.6076 20.2402ZM18.7286 16.2559C19.0275 16.2559 19.4259 16.2559 19.8243 16.1562C22.8126 15.2598 24.4064 11.1758 23.2111 6.79297C22.215 3.00781 19.3263 0.318359 16.5372 0.318359C16.2384 0.318359 15.84 0.318359 15.4415 0.417969C12.4533 1.31445 10.8595 5.39844 12.0548 9.78125C13.1505 13.5664 15.9396 16.2559 18.7286 16.2559ZM14.047 3.50586C14.3458 3.00781 14.9435 2.21094 15.9396 2.01172C16.1388 1.91211 16.338 1.91211 16.5372 1.91211C18.629 1.91211 20.8204 4.20312 21.7169 7.19141C22.215 9.38281 22.1154 11.5742 21.2189 13.0684C20.92 13.5664 20.3224 14.3633 19.3263 14.5625C19.1271 14.6621 18.9279 14.6621 18.7286 14.6621C16.6368 14.6621 14.4454 12.3711 13.549 9.38281C13.0509 7.19141 13.1505 5 14.047 3.50586ZM7.97083 25.7188C10.8595 25.0215 12.3536 21.6348 11.3575 18.1484C10.4611 15.1602 7.87122 13.0684 5.28137 13.0684C4.88294 13.0684 4.58411 13.0684 4.18567 13.168C1.297 13.8652 -0.197142 17.252 0.798952 20.7383C1.69544 23.7266 4.28528 25.8184 6.87512 25.8184C7.27356 25.8184 7.57239 25.8184 7.97083 25.7188ZM2.3927 20.2402C1.89466 18.7461 1.99426 17.3516 2.69153 16.2559C2.99036 15.6582 3.58802 14.9609 4.58411 14.7617C4.78333 14.6621 5.08216 14.6621 5.28137 14.6621C7.17395 14.6621 9.16614 16.3555 9.7638 18.6465C10.2618 20.1406 10.1622 21.5352 9.46497 22.6309C9.16614 23.2285 8.56848 23.9258 7.57239 24.125C7.37317 24.2246 7.07434 24.2246 6.87512 24.2246C4.98255 24.2246 2.99036 22.5312 2.3927 20.2402ZM26.0001 19.4434C18.131 19.4434 6.87512 31.6953 6.87512 39.3652C6.87512 42.8516 9.56458 44.9434 14.047 44.9434C18.9279 44.9434 22.1154 42.4531 26.0001 42.4531C29.8849 42.4531 33.172 44.9434 37.9533 44.9434C42.4357 44.9434 45.1251 42.8516 45.1251 39.3652C45.1251 31.6953 33.8693 19.4434 26.0001 19.4434ZM37.9533 43.3496C35.6622 43.3496 33.7697 42.752 31.8771 42.0547C29.9845 41.457 28.0919 40.8594 26.0001 40.8594C23.9083 40.8594 22.0158 41.457 20.2228 42.0547C18.3302 42.752 16.338 43.3496 14.047 43.3496C11.9552 43.3496 8.46887 42.8516 8.46887 39.3652C8.46887 32.3926 19.3263 21.0371 26.0001 21.0371C32.674 21.0371 43.5314 32.3926 43.5314 39.3652C43.5314 42.8516 40.0451 43.3496 37.9533 43.3496Z" fill="#008CDD"/>
</svg>
