<svg width="82" height="71" viewBox="0 0 82 71" fill="none" xmlns="http://www.w3.org/2000/svg">
<path d="M41 30.313C44.9062 30.313 49.2812 32.188 54.2812 35.7817C58.8125 39.2192 62.7188 43.2817 66 48.1255C69.2812 53.1255 71 57.6567 71 61.563C71 64.3755 69.9062 66.4067 68.0312 67.9692C66 69.5317 63.1875 70.313 59.75 70.313C57.875 70.313 56.1562 70.1567 54.2812 69.688C53.0312 69.3755 51.4688 68.9067 49.4375 68.2817L45.2188 66.8755C43.6562 66.563 42.25 66.4067 41 66.4067C39.75 66.4067 38.3438 66.563 36.7812 66.8755C35.8438 67.188 34.4375 67.6567 32.7188 68.1255C30.5312 68.9067 28.8125 69.3755 27.7188 69.688C25.8438 70.1567 23.9688 70.313 22.25 70.313C18.6562 70.313 15.8438 69.5317 13.9688 67.9692C11.9375 66.4067 11 64.3755 11 61.563C11 57.6567 12.5625 53.1255 16 48.1255C19.125 43.2817 23.0312 39.2192 27.7188 35.7817C32.5625 32.188 36.9375 30.313 41 30.313ZM59.75 65.313C63.8125 65.313 66 64.063 66 61.563C66 58.438 64.4375 54.8442 61.625 50.4692C58.8125 46.4067 55.375 42.9692 51.625 40.0005C47.5625 36.8755 43.9688 35.313 41 35.313C37.875 35.313 34.4375 36.8755 30.375 40.0005C26.4688 42.9692 23.1875 46.4067 20.375 50.4692C17.4062 54.8442 16 58.438 16 61.563C16 64.063 18.0312 65.313 22.25 65.313C23.6562 65.313 25.2188 65.1567 26.7812 64.688C27.7188 64.5317 29.125 64.063 31.1562 63.438C33.0312 62.813 34.5938 62.3442 35.8438 62.0317C37.5625 61.7192 39.2812 61.4067 41 61.4067C42.5625 61.4067 44.4375 61.7192 46.3125 62.0317C47.25 62.3442 48.8125 62.813 50.8438 63.438C52.7188 64.063 54.2812 64.5317 55.2188 64.688C56.7812 65.1567 58.3438 65.313 59.75 65.313ZM75.2188 20.4692C77.4062 21.0942 79.125 22.5005 80.2188 24.8442C81.1562 27.188 81.3125 29.688 80.5312 32.3442C79.75 34.688 78.5 36.563 76.7812 38.1255C74.9062 39.688 73.0312 40.313 71 40.313C70.375 40.313 69.75 40.313 69.2812 40.1567C66.9375 39.688 65.2188 38.2817 64.2812 35.938C63.1875 33.5942 63.0312 31.0942 63.9688 28.2817C64.5938 26.0942 65.8438 24.2192 67.7188 22.6567C69.4375 21.0942 71.3125 20.313 73.5 20.313C74.125 20.313 74.5938 20.4692 75.2188 20.4692ZM75.6875 30.7817C76.1562 29.2192 76 27.813 75.375 26.563C75.0625 25.938 74.5938 25.6255 73.9688 25.313H73.5C72.5625 25.313 71.7812 25.7817 70.8438 26.563C69.9062 27.5005 69.125 28.5942 68.8125 29.8442C68.1875 31.563 68.3438 32.9692 69.125 34.063C69.4375 34.688 69.9062 35.1567 70.5312 35.313H71C71.7812 35.313 72.7188 35.0005 73.6562 34.063C74.5938 33.2817 75.2188 32.188 75.6875 30.7817ZM50.8438 25.1567C48.3438 24.5317 46.4688 22.813 45.5312 20.0005C44.4375 17.188 44.4375 13.9067 45.375 10.4692C46.1562 7.65674 47.5625 5.15674 49.5938 3.28174C51.4688 1.40674 53.6562 0.312988 55.8438 0.312988C56.3125 0.312988 56.7812 0.469238 57.4062 0.469238C59.9062 1.09424 61.625 2.96924 62.7188 5.78174C63.6562 8.59424 63.8125 11.7192 62.875 15.1567C61.9375 18.1255 60.5312 20.6255 58.6562 22.5005C56.625 24.3755 54.5938 25.313 52.4062 25.313C51.7812 25.313 51.3125 25.313 50.8438 25.1567ZM50.2188 11.8755C49.75 13.438 49.5938 14.688 49.75 15.938C49.75 17.188 50.0625 18.2817 50.5312 18.9067C51 19.688 51.4688 20.1567 52.0938 20.313H52.4062C53.3438 20.313 54.2812 19.8442 55.5312 18.5942C56.625 17.3442 57.4062 15.7817 58.0312 13.7505C58.3438 12.3442 58.5 10.938 58.5 9.68799C58.3438 8.43799 58.0312 7.50049 57.5625 6.71924C57.0938 6.09424 56.625 5.62549 56.1562 5.31299H55.8438C54.9062 5.31299 53.8125 5.93799 52.7188 7.18799C51.4688 8.43799 50.6875 10.0005 50.2188 11.8755ZM29.5938 25.313C27.4062 25.313 25.2188 24.3755 23.3438 22.5005C21.3125 20.6255 19.9062 18.1255 19.125 15.1567C18.1875 11.7192 18.1875 8.59424 19.2812 5.78174C20.2188 2.96924 22.0938 1.09424 24.5938 0.469238C25.0625 0.469238 25.5312 0.312988 26.1562 0.312988C28.3438 0.312988 30.375 1.40674 32.4062 3.28174C34.2812 5.15674 35.6875 7.65674 36.625 10.4692C37.5625 13.9067 37.4062 17.188 36.4688 20.0005C35.375 22.813 33.6562 24.5317 31.1562 25.1567C30.5312 25.313 30.0625 25.313 29.5938 25.313ZM24.4375 6.56299C23.8125 7.50049 23.5 8.43799 23.5 9.68799C23.3438 10.938 23.5 12.3442 23.9688 13.7505C24.4375 15.7817 25.2188 17.3442 26.4688 18.5942C27.5625 19.8442 28.6562 20.313 29.5938 20.313H29.9062C30.375 20.1567 30.8438 19.688 31.3125 18.9067C31.7812 18.2817 32.0938 17.188 32.25 15.938C32.25 14.688 32.0938 13.438 31.7812 11.8755C31.1562 10.0005 30.375 8.43799 29.2812 7.18799C28.0312 5.93799 27.0938 5.31299 26.1562 5.31299H25.8438C25.2188 5.62549 24.75 5.93799 24.4375 6.56299ZM12.7188 40.1567C12.0938 40.313 11.625 40.313 11 40.313C8.8125 40.313 6.9375 39.688 5.21875 38.1255C3.34375 36.563 2.09375 34.688 1.46875 32.3442C0.53125 29.688 0.6875 27.188 1.78125 24.8442C2.71875 22.5005 4.4375 21.0942 6.78125 20.4692C7.25 20.4692 7.875 20.313 8.5 20.313C10.5312 20.313 12.4062 21.0942 14.2812 22.6567C16 24.2192 17.25 26.0942 18.0312 28.2817C18.8125 31.0942 18.6562 33.5942 17.7188 35.938C16.625 38.2817 14.9062 39.688 12.7188 40.1567ZM6.3125 30.7817C6.625 32.188 7.40625 33.2817 8.34375 34.063C9.28125 35.0005 10.0625 35.313 11 35.313H11.4688C12.0938 35.1567 12.5625 34.688 12.875 34.063C13.5 32.9692 13.6562 31.563 13.1875 29.8442C12.7188 28.5942 12.0938 27.5005 11.1562 26.563C10.2188 25.7817 9.28125 25.313 8.5 25.313H8.03125C7.40625 25.6255 6.9375 25.938 6.625 26.563C5.84375 27.813 5.6875 29.2192 6.3125 30.7817Z" fill="#008CDD"/>
</svg>
