<svg width="50" height="50" viewBox="0 0 50 50" fill="none" xmlns="http://www.w3.org/2000/svg">
<g filter="url(#filter0_d_37_1028)">
<path d="M34.5156 19.7734C35.1719 20.1836 35.5 20.7578 35.5 21.4961C35.5 22.3164 35.1719 22.8906 34.5156 23.2188L20.0781 31.5039C19.4219 31.9141 18.7656 31.9141 18.1094 31.5039C17.4531 31.1758 17.125 30.6016 17.125 29.7812V12.7188C17.125 11.9805 17.4531 11.4062 18.1094 10.9961C18.7656 10.668 19.4219 10.668 20.0781 10.9961L34.5156 19.7734ZM45.3438 21.25C45.3438 24.9414 44.3594 28.3047 42.5547 31.4219C40.75 34.5391 38.2891 37.082 35.1719 38.8867C32.0547 40.6914 28.6094 41.5938 25 41.5938C21.3086 41.5938 17.9453 40.6914 14.8281 38.8867C11.7109 37.082 9.16797 34.5391 7.36328 31.4219C5.55859 28.3047 4.65625 24.9414 4.65625 21.25C4.65625 17.6406 5.55859 14.1953 7.36328 11.0781C9.16797 7.96094 11.7109 5.5 14.8281 3.69531C17.9453 1.89062 21.3086 0.90625 25 0.90625C28.6094 0.90625 32.0547 1.89062 35.1719 3.69531C38.2891 5.5 40.75 7.96094 42.5547 11.0781C44.3594 14.1953 45.3438 17.6406 45.3438 21.25ZM8.59375 21.25C8.59375 24.2031 9.33203 26.9922 10.8086 29.4531C12.2852 31.9961 14.2539 33.9648 16.7969 35.4414C19.2578 36.918 22.0469 37.6562 25 37.6562C27.9531 37.6562 30.6602 36.918 33.2031 35.4414C35.6641 33.9648 37.7148 31.9961 39.1914 29.4531C40.668 26.9922 41.4062 24.2031 41.4062 21.25C41.4062 18.2969 40.668 15.5898 39.1914 13.0469C37.7148 10.5859 35.6641 8.53516 33.2031 7.05859C30.6602 5.58203 27.9531 4.84375 25 4.84375C22.0469 4.84375 19.2578 5.58203 16.7969 7.05859C14.2539 8.53516 12.2852 10.5859 10.8086 13.0469C9.33203 15.5898 8.59375 18.2969 8.59375 21.25Z" fill="white"/>
</g>
<defs>
<filter id="filter0_d_37_1028" x="0.65625" y="0.90625" width="48.6875" height="48.6875" filterUnits="userSpaceOnUse" color-interpolation-filters="sRGB">
<feFlood flood-opacity="0" result="BackgroundImageFix"/>
<feColorMatrix in="SourceAlpha" type="matrix" values="0 0 0 0 0 0 0 0 0 0 0 0 0 0 0 0 0 0 127 0" result="hardAlpha"/>
<feOffset dy="4"/>
<feGaussianBlur stdDeviation="2"/>
<feComposite in2="hardAlpha" operator="out"/>
<feColorMatrix type="matrix" values="0 0 0 0 0 0 0 0 0 0 0 0 0 0 0 0 0 0 0.25 0"/>
<feBlend mode="normal" in2="BackgroundImageFix" result="effect1_dropShadow_37_1028"/>
<feBlend mode="normal" in="SourceGraphic" in2="effect1_dropShadow_37_1028" result="shape"/>
</filter>
</defs>
</svg>
