<svg width="16" height="13" viewBox="0 0 16 13" fill="none" xmlns="http://www.w3.org/2000/svg">
<path d="M15.6875 4.452C14.9375 5.04575 13.3125 6.23325 10.875 7.98325L10.5625 8.23325C10.0625 8.60825 9.6875 8.8895 9.375 9.04575C8.875 9.35825 8.40625 9.48325 8 9.48325C7.5625 9.48325 7.125 9.35825 6.625 9.077C6.3125 8.92075 5.9375 8.6395 5.4375 8.2645L5.125 7.98325C2.59375 6.17075 1 4.98325 0.3125 4.452C0.25 4.42075 0.15625 4.42075 0.09375 4.452C0.03125 4.48325 0 4.54575 0 4.60825V10.9832C0 11.4207 0.125 11.7645 0.4375 12.0457C0.71875 12.3582 1.0625 12.4832 1.5 12.4832H14.5C14.9062 12.4832 15.25 12.3582 15.5625 12.0457C15.8438 11.7645 16 11.4207 16 10.9832V4.60825C16 4.54575 15.9375 4.48325 15.875 4.42075C15.8125 4.3895 15.75 4.3895 15.6875 4.452ZM8 8.48325C7.71875 8.48325 7.375 8.35825 7 8.10825C6.75 7.98325 6.4375 7.7645 6.03125 7.42075L5.71875 7.202C3.15625 5.327 1.40625 4.04575 0.5 3.327L0.28125 3.17075C0.09375 3.04575 0 2.827 0 2.577V1.98325C0 1.577 0.125 1.23325 0.4375 0.920746C0.71875 0.639496 1.0625 0.483246 1.5 0.483246H14.5C14.9062 0.483246 15.25 0.639496 15.5625 0.920746C15.8438 1.23325 16 1.577 16 1.98325V2.577C16 2.827 15.9062 3.04575 15.7188 3.17075L15.5625 3.29575C14.6562 4.0145 12.9062 5.327 10.2812 7.202L9.96875 7.42075C9.53125 7.7645 9.21875 7.98325 9 8.10825C8.59375 8.35825 8.25 8.48325 8 8.48325Z" fill="#898989"/>
</svg>
