<svg width="26" height="24" viewBox="0 0 26 24" fill="none" xmlns="http://www.w3.org/2000/svg">
<path d="M18.4864 8.31375C18.3766 8.04406 18.2085 7.79917 17.9929 7.59486C17.7773 7.39055 17.519 7.23134 17.2345 7.1275C16.8429 6.98991 16.4293 6.91718 16.0117 6.9125C15.3173 6.8825 15.1091 6.875 13.3499 6.875C11.5908 6.875 11.3826 6.8825 10.6881 6.9125C10.2701 6.91704 9.85601 6.98976 9.46397 7.1275C9.17967 7.23163 8.92152 7.39109 8.70614 7.59562C8.49076 7.80015 8.32293 8.0452 8.21346 8.315C8.06841 8.68649 7.99174 9.07887 7.98681 9.475C7.95518 10.1337 7.94728 10.3312 7.94728 12C7.94728 13.6687 7.95518 13.8662 7.98681 14.525C7.99159 14.9215 8.06826 15.3144 8.21346 15.6862C8.32323 15.9559 8.49133 16.2008 8.70694 16.4051C8.92254 16.6094 9.18087 16.7687 9.46529 16.8725C9.85691 17.0101 10.2705 17.0828 10.6881 17.0875C11.3826 17.1175 11.5908 17.1237 13.3499 17.1237C15.1091 17.1237 15.3173 17.1175 16.0117 17.0862C16.4297 17.0821 16.8438 17.0098 17.2359 16.8725C17.5202 16.7684 17.7783 16.6089 17.9937 16.4044C18.2091 16.1999 18.3769 15.9548 18.4864 15.685C18.6314 15.3135 18.7081 14.9211 18.713 14.525C18.7447 13.8662 18.7512 13.6687 18.7512 12C18.7512 10.3312 18.7447 10.1337 18.7117 9.475C18.7073 9.07852 18.6311 8.68571 18.4864 8.31375ZM13.3499 15.21C12.6806 15.21 12.0264 15.0217 11.4699 14.669C10.9134 14.3163 10.4797 13.815 10.2236 13.2284C9.96749 12.6419 9.90047 11.9964 10.031 11.3738C10.1616 10.7511 10.4839 10.1791 10.9571 9.73019C11.4304 9.28126 12.0333 8.97554 12.6898 8.85168C13.3462 8.72782 14.0266 8.79139 14.6449 9.03435C15.2632 9.2773 15.7917 9.68874 16.1635 10.2166C16.5354 10.7445 16.7338 11.3651 16.7338 12C16.7338 12.8513 16.3773 13.6678 15.7427 14.2698C15.1081 14.8718 14.2474 15.21 13.3499 15.21ZM16.8669 9.41375C16.7105 9.41375 16.5577 9.36976 16.4277 9.28735C16.2976 9.20494 16.1963 9.08781 16.1365 8.95076C16.0766 8.81372 16.061 8.66292 16.0915 8.51743C16.122 8.37194 16.1973 8.23831 16.3078 8.13342C16.4184 8.02853 16.5593 7.9571 16.7127 7.92816C16.866 7.89922 17.025 7.91407 17.1695 7.97084C17.3139 8.0276 17.4374 8.12373 17.5243 8.24707C17.6112 8.37041 17.6575 8.51541 17.6575 8.66375C17.6575 8.86266 17.5742 9.05343 17.426 9.19408C17.2777 9.33473 17.0766 9.41375 16.8669 9.41375ZM15.5466 12C15.5466 12.4121 15.4177 12.815 15.1764 13.1577C14.935 13.5003 14.5919 13.7674 14.1905 13.9251C13.7892 14.0828 13.3475 14.1241 12.9214 14.0437C12.4953 13.9633 12.1039 13.7648 11.7967 13.4734C11.4895 13.182 11.2802 12.8107 11.1955 12.4065C11.1107 12.0023 11.1542 11.5833 11.3205 11.2026C11.4868 10.8218 11.7683 10.4964 12.1295 10.2674C12.4908 10.0385 12.9155 9.91625 13.3499 9.91625C13.9325 9.91625 14.4912 10.1358 14.9032 10.5266C15.3151 10.9173 15.5466 11.4474 15.5466 12ZM13.3499 0C10.848 0 8.4022 0.703788 6.32191 2.02236C4.24161 3.34094 2.62022 5.21508 1.66277 7.4078C0.70531 9.60051 0.454796 12.0133 0.942903 14.3411C1.43101 16.6689 2.63581 18.807 4.40496 20.4853C6.1741 22.1635 8.42813 23.3064 10.882 23.7694C13.3359 24.2324 15.8794 23.9948 18.1909 23.0865C20.5024 22.1783 22.4781 20.6402 23.8681 18.6668C25.2581 16.6935 26 14.3734 26 12C26 8.8174 24.6672 5.76515 22.2949 3.51472C19.9225 1.26428 16.7049 0 13.3499 0V0ZM19.899 14.5762C19.8878 15.0949 19.784 15.608 19.5919 16.0937C19.4227 16.5088 19.1639 16.8858 18.8322 17.2005C18.5004 17.5152 18.103 17.7607 17.6654 17.9212C17.1538 18.1033 16.6134 18.2018 16.067 18.2125C15.3634 18.2425 15.1394 18.25 13.3499 18.25C11.5605 18.25 11.3364 18.2425 10.6328 18.2125C10.0865 18.2018 9.54602 18.1033 9.03439 17.9212C8.59681 17.7607 8.19941 17.5152 7.86765 17.2005C7.5359 16.8858 7.27712 16.5088 7.10789 16.0937C6.91598 15.6084 6.81217 15.0957 6.80086 14.5775C6.76924 13.91 6.76133 13.6975 6.76133 12C6.76133 10.3025 6.76924 10.09 6.80086 9.4225C6.81175 8.90433 6.91511 8.39165 7.10657 7.90625C7.27579 7.4908 7.53471 7.1135 7.8667 6.79856C8.1987 6.48363 8.59644 6.23802 9.03439 6.0775C9.5461 5.89588 10.0865 5.79782 10.6328 5.7875C11.3364 5.7575 11.5605 5.75 13.3499 5.75C15.1394 5.75 15.3634 5.7575 16.067 5.7875C16.6133 5.79782 17.1537 5.89588 17.6654 6.0775C18.1032 6.23817 18.5006 6.48384 18.8324 6.79877C19.1642 7.1137 19.4229 7.49092 19.5919 7.90625C19.7839 8.39158 19.8877 8.90426 19.899 9.4225C19.9306 10.09 19.9385 10.3025 19.9385 12C19.9385 13.6975 19.9306 13.91 19.899 14.5775V14.5762Z" fill="white"/>
</svg>
