<svg width="52" height="49" viewBox="0 0 52 49" fill="none" xmlns="http://www.w3.org/2000/svg">
<path d="M48.1665 6.69336H43.4165L42.7238 5.29883C42.229 4.30273 40.9425 3.50586 39.854 3.50586H34.6092L31.8384 0.816406C31.5415 0.417969 31.1457 0.318359 30.7498 0.318359C29.9582 0.318359 29.1665 0.916016 29.1665 1.91211V19.4434H13.3332C11.7498 19.4434 10.2655 20.041 9.17692 21.0371H7.7915C4.7238 21.0371 2.24984 18.5469 2.24984 15.459C2.24984 15.0605 1.854 14.6621 1.45817 14.6621C1.06234 14.6621 0.666504 15.0605 0.666504 15.459C0.666504 19.4434 3.83317 22.6309 7.7915 22.6309H7.89046C7.29671 23.5273 6.99984 24.623 6.99984 25.8184V44.9434C6.99984 46.7363 8.38525 48.1309 10.1665 48.1309H13.3332C15.1144 48.1309 16.4998 46.7363 16.4998 44.9434V35.3809H32.3332V44.9434C32.3332 46.7363 33.7186 48.1309 35.4998 48.1309H38.6665C40.4478 48.1309 41.8332 46.7363 41.8332 44.9434V19.4434H44.9998C48.4634 19.4434 51.3332 16.5547 51.3332 13.0684V9.88086C51.3332 8.08789 49.9478 6.69336 48.1665 6.69336ZM40.2498 44.9434C40.2498 45.8398 39.5571 46.5371 38.6665 46.5371H35.4998C34.6092 46.5371 33.9165 45.8398 33.9165 44.9434V33.7871H14.9165V44.9434C14.9165 45.8398 14.2238 46.5371 13.3332 46.5371H10.1665C9.27588 46.5371 8.58317 45.8398 8.58317 44.9434V25.8184C8.58317 23.2285 10.7603 21.0371 13.3332 21.0371H29.1665H29.7603L40.2498 25.5195V44.9434ZM49.7498 13.0684C49.7498 15.6582 47.5728 17.8496 44.9998 17.8496H40.2498V23.8262L30.7498 19.7422V19.4434V1.91211L33.4217 4.60156L33.9165 5.09961H39.854C40.3488 5.09961 41.0415 5.49805 41.3384 5.99609L42.4269 8.28711H48.1665C49.0571 8.28711 49.7498 8.98438 49.7498 9.88086V13.0684ZM38.6665 7.49023C37.9738 7.49023 37.479 7.98828 37.479 8.68555C37.479 9.38281 37.9738 9.88086 38.6665 9.88086C39.3592 9.88086 39.854 9.38281 39.854 8.68555C39.854 7.98828 39.3592 7.49023 38.6665 7.49023Z" fill="#008CDD"/>
</svg>
