<svg width="57" height="57" viewBox="0 0 57 57" fill="none" xmlns="http://www.w3.org/2000/svg">
<g clip-path="url(#clip0_1354_14235)">
<path d="M34.859 20.8945C35.2965 21.0039 35.734 21.0039 36.0621 21.0039C39.1246 21.0039 42.1871 18.0508 43.3902 13.8945C44.7027 9.08203 42.9527 4.59766 39.6715 3.61328C39.234 3.50391 38.7965 3.50391 38.4683 3.50391C35.4058 3.50391 32.3433 6.45703 31.1402 10.6133C29.8277 15.4258 31.5777 19.9102 34.859 20.8945ZM32.7808 11.0508C33.7652 7.76953 36.1715 5.25391 38.4683 5.25391C38.6871 5.25391 38.9058 5.25391 39.1246 5.36328C40.2183 5.58203 40.8746 6.45703 41.2027 7.00391C42.1871 8.64453 42.2965 11.0508 41.7496 13.457C40.7652 16.7383 38.359 19.2539 36.0621 19.2539C35.8433 19.2539 35.6246 19.2539 35.4058 19.1445C34.3121 18.9258 33.6558 18.0508 33.3277 17.5039C32.3433 15.8633 32.234 13.457 32.7808 11.0508ZM52.0308 17.6133C51.5933 17.5039 51.2652 17.5039 50.8277 17.5039C47.984 17.5039 45.1402 19.8008 44.1558 23.082C43.0621 26.9102 44.7027 30.6289 47.8746 31.3945C48.3121 31.5039 48.6402 31.5039 49.0777 31.5039C51.9215 31.5039 54.7652 29.207 55.7496 25.9258C56.8433 22.0977 55.2027 18.3789 52.0308 17.6133ZM53.9996 25.3789C53.234 27.8945 51.1558 29.7539 49.0777 29.7539C48.859 29.7539 48.5308 29.7539 48.3121 29.6445C47.2183 29.4258 46.5621 28.6602 46.234 28.0039C45.4683 26.8008 45.359 25.2695 45.9058 23.6289C46.5621 21.1133 48.7496 19.2539 50.8277 19.2539C51.0465 19.2539 51.3746 19.2539 51.5933 19.3633C52.6871 19.582 53.3433 20.3477 53.6715 21.0039C54.4371 22.207 54.5465 23.7383 53.9996 25.3789ZM20.0933 21.0039C20.4215 21.0039 20.859 21.0039 21.2965 20.8945C24.5777 19.9102 26.3277 15.4258 25.0152 10.6133C23.9215 6.45703 20.7496 3.50391 17.6871 3.50391C17.359 3.50391 16.9215 3.50391 16.484 3.61328C13.2027 4.59766 11.4527 9.08203 12.7652 13.8945C13.9683 18.0508 17.0308 21.0039 20.0933 21.0039ZM14.9527 7.00391C15.2808 6.45703 15.9371 5.58203 17.0308 5.36328C17.2496 5.25391 17.4683 5.25391 17.6871 5.25391C19.984 5.25391 22.3902 7.76953 23.3746 11.0508C23.9215 13.457 23.8121 15.8633 22.8277 17.5039C22.4996 18.0508 21.8433 18.9258 20.7496 19.1445C20.5308 19.2539 20.3121 19.2539 20.0933 19.2539C17.7965 19.2539 15.3902 16.7383 14.4058 13.457C13.859 11.0508 13.9683 8.64453 14.9527 7.00391ZM8.28083 31.3945C11.4527 30.6289 13.0933 26.9102 11.9996 23.082C11.0152 19.8008 8.17146 17.5039 5.32771 17.5039C4.89021 17.5039 4.56208 17.5039 4.12458 17.6133C0.952706 18.3789 -0.68792 22.0977 0.40583 25.9258C1.39021 29.207 4.23396 31.5039 7.07771 31.5039C7.51521 31.5039 7.84333 31.5039 8.28083 31.3945ZM2.15583 25.3789C1.60896 23.7383 1.71833 22.207 2.48396 21.0039C2.81208 20.3477 3.46833 19.582 4.56208 19.3633C4.78083 19.2539 5.10896 19.2539 5.32771 19.2539C7.40583 19.2539 9.59333 21.1133 10.2496 23.6289C10.7965 25.2695 10.6871 26.8008 9.92146 28.0039C9.59333 28.6602 8.93708 29.4258 7.84333 29.6445C7.62458 29.7539 7.29646 29.7539 7.07771 29.7539C4.99958 29.7539 2.81208 27.8945 2.15583 25.3789ZM28.0777 24.5039C19.4371 24.5039 7.07771 37.957 7.07771 46.3789C7.07771 50.207 10.0308 52.5039 14.9527 52.5039C20.3121 52.5039 23.8121 49.7695 28.0777 49.7695C32.3433 49.7695 35.9527 52.5039 41.2027 52.5039C46.1246 52.5039 49.0777 50.207 49.0777 46.3789C49.0777 37.957 36.7183 24.5039 28.0777 24.5039ZM41.2027 50.7539C38.6871 50.7539 36.609 50.0977 34.5308 49.332C32.4527 48.6758 30.3746 48.0195 28.0777 48.0195C25.7808 48.0195 23.7027 48.6758 21.734 49.332C19.6558 50.0977 17.4683 50.7539 14.9527 50.7539C12.6558 50.7539 8.82771 50.207 8.82771 46.3789C8.82771 38.7227 20.7496 26.2539 28.0777 26.2539C35.4058 26.2539 47.3277 38.7227 47.3277 46.3789C47.3277 50.207 43.4996 50.7539 41.2027 50.7539Z" fill="#0066DE"/>
</g>
<defs>
<clipPath id="clip0_1354_14235">
<rect width="56" height="56" fill="white" transform="translate(0.078125 0.00390625)"/>
</clipPath>
</defs>
</svg>
