<svg width="56" height="56" viewBox="0 0 56 56" fill="none" xmlns="http://www.w3.org/2000/svg">
<path d="M52.1111 24.5H51.5278C50.75 22.4219 49.5833 20.5625 48.125 18.9219L49.7778 11.5938C49.7778 11.375 49.7778 11.0469 49.5833 10.8281C49.4861 10.6094 49.1944 10.5 49 10.5H45.8889C43.1667 10.5 40.5417 11.8125 38.5972 14.1094C38.2083 14 37.7222 14 37.3333 14H24.8889C16.5278 14 9.81944 21.4375 9.43056 30.625C9.33333 30.625 9.33333 30.625 9.33333 30.625H3.88889C2.625 30.625 1.55556 29.4219 1.55556 28V24.5C1.55556 23.0781 2.625 21.875 3.88889 21.875C5.15278 21.875 6.22222 23.0781 6.22222 24.5C6.22222 24.9375 6.61111 25.375 7 25.375C7.38889 25.375 7.77778 24.9375 7.77778 24.5C7.77778 22.0938 6.02778 20.125 3.88889 20.125C1.75 20.125 0 22.0938 0 24.5V28C0 30.4062 1.75 32.375 3.88889 32.375H9.33333C9.625 37.5156 11.8611 42.3281 15.5556 45.5V51.625C15.5556 54.0312 17.3056 56 19.4444 56H21C23.1389 56 24.8889 54.0312 24.8889 51.625V49H37.3333V51.625C37.3333 54.0312 39.0833 56 41.2222 56H42.7778C44.9167 56 46.6667 54.0312 46.6667 51.625V45.5C47.8333 44.4062 48.9028 43.3125 49.7778 42H52.1111C54.25 42 56 40.0312 56 37.625V28.875C56 26.4688 54.25 24.5 52.1111 24.5ZM38.1111 48.8906C38.1111 48.8906 38.1111 48.8906 38.2083 48.8906C38.1111 48.8906 38.1111 48.8906 38.1111 48.8906ZM54.4444 37.625C54.4444 39.0469 53.375 40.25 52.1111 40.25H49.3889C49.0972 40.25 48.9028 40.3594 48.7083 40.5781C47.8333 42 46.6667 43.3125 45.4028 44.2969C45.2083 44.4062 45.1111 44.7344 45.1111 44.9531V51.625C45.1111 53.0469 44.0417 54.25 42.7778 54.25H41.2222C39.9583 54.25 38.8889 53.0469 38.8889 51.625V48.7812C39.4722 48.7812 40.0556 48.7812 40.6389 48.5625C41.0278 48.4531 41.3194 48.0156 41.2222 47.5781C41.125 47.1406 40.7361 46.8125 40.25 46.9219C39.2778 47.1406 38.3056 47.25 37.3333 47.25H24.8889C23.9167 47.25 22.9444 47.1406 21.9722 46.9219C21.4861 46.8125 21.0972 47.1406 21 47.5781C20.9028 48.0156 21.1944 48.5625 21.5833 48.5625C22.1667 48.7812 22.75 48.7812 23.3333 48.7812V51.625C23.3333 53.0469 22.2639 54.25 21 54.25H19.4444C18.1806 54.25 17.1111 53.0469 17.1111 51.625V45.0625C17.1111 44.7344 17.0139 44.5156 16.8194 44.2969C13.125 41.3438 10.8889 36.5312 10.8889 31.5C10.8889 22.8594 17.2083 15.75 24.8889 15.75H37.3333C37.8194 15.75 38.2083 15.75 38.7917 15.8594C39.0833 15.8594 39.2778 15.75 39.4722 15.6406C41.125 13.4531 43.4583 12.25 45.8889 12.25H48.0278L46.4722 19.0312C46.4722 19.3594 46.5694 19.6875 46.7639 19.9062C48.3194 21.5469 49.5833 23.5156 50.3611 25.7031C50.4583 26.0312 50.75 26.25 51.0417 26.25H52.1111C53.375 26.25 54.4444 27.4531 54.4444 28.875V37.625ZM42 28C41.125 28 40.4444 28.7656 40.4444 29.75C40.4444 30.7344 41.125 31.5 42 31.5C42.875 31.5 43.5556 30.7344 43.5556 29.75C43.5556 28.7656 42.875 28 42 28ZM20.2222 12.25C20.6111 12.25 21 11.8125 21 11.375C21 6.01562 24.7917 1.75 29.5556 1.75C33.9306 1.75 37.7222 5.57812 38.1111 10.6094C38.1111 11.0469 38.5 11.375 38.8889 11.375C39.375 11.375 39.6667 10.9375 39.6667 10.3906C39.1806 4.59375 34.8056 0 29.5556 0C24.0139 0 19.4444 5.14062 19.4444 11.375C19.4444 11.8125 19.8333 12.25 20.2222 12.25Z" fill="#0066DE"/>
</svg>
