<svg width="68" height="61" viewBox="0 0 68 61" fill="none" xmlns="http://www.w3.org/2000/svg">
<g clip-path="url(#clip0_1354_14216)">
<path d="M62.4371 26.3809H61.7392C60.8086 24.1543 59.4128 22.1621 57.668 20.4043L59.6454 12.5527C59.6454 12.3184 59.6454 11.9668 59.4128 11.7324C59.2964 11.498 58.9475 11.3809 58.7148 11.3809H54.9926C51.7357 11.3809 48.5951 12.7871 46.2687 15.248C45.8034 15.1309 45.2218 15.1309 44.7565 15.1309H29.8676C19.8641 15.1309 11.8381 23.0996 11.3728 32.9434C11.2565 32.9434 11.2565 32.9434 11.2565 32.9434H4.74262C3.23047 32.9434 1.95095 31.6543 1.95095 30.1309V26.3809C1.95095 24.8574 3.23047 23.5684 4.74262 23.5684C6.25477 23.5684 7.53429 24.8574 7.53429 26.3809C7.53429 26.8496 7.99957 27.3184 8.46484 27.3184C8.93012 27.3184 9.3954 26.8496 9.3954 26.3809C9.3954 23.8027 7.30165 21.6934 4.74262 21.6934C2.18359 21.6934 0.0898438 23.8027 0.0898438 26.3809V30.1309C0.0898438 32.709 2.18359 34.8184 4.74262 34.8184H11.2565C11.6055 40.3262 14.2808 45.4824 18.701 48.8809V55.4434C18.701 58.0215 20.7947 60.1309 23.3537 60.1309H25.2148C27.7739 60.1309 29.8676 58.0215 29.8676 55.4434V52.6309H44.7565V55.4434C44.7565 58.0215 46.8503 60.1309 49.4093 60.1309H51.2704C53.8294 60.1309 55.9232 58.0215 55.9232 55.4434V48.8809C57.319 47.709 58.5985 46.5371 59.6454 45.1309H62.4371C64.9961 45.1309 67.0898 43.0215 67.0898 40.4434V31.0684C67.0898 28.4902 64.9961 26.3809 62.4371 26.3809ZM45.6871 52.5137C45.6871 52.5137 45.6871 52.5137 45.8034 52.5137C45.6871 52.5137 45.6871 52.5137 45.6871 52.5137ZM65.2287 40.4434C65.2287 41.9668 63.9492 43.2559 62.4371 43.2559H59.1801C58.8312 43.2559 58.5985 43.373 58.3659 43.6074C57.319 45.1309 55.9232 46.5371 54.411 47.5918C54.1784 47.709 54.0621 48.0605 54.0621 48.2949V55.4434C54.0621 56.9668 52.7826 58.2559 51.2704 58.2559H49.4093C47.8971 58.2559 46.6176 56.9668 46.6176 55.4434V52.3965C47.3155 52.3965 48.0135 52.3965 48.7114 52.1621C49.1767 52.0449 49.5256 51.5762 49.4093 51.1074C49.293 50.6387 48.8277 50.2871 48.2461 50.4043C47.0829 50.6387 45.9197 50.7559 44.7565 50.7559H29.8676C28.7044 50.7559 27.5412 50.6387 26.378 50.4043C25.7964 50.2871 25.3312 50.6387 25.2148 51.1074C25.0985 51.5762 25.4475 52.1621 25.9128 52.1621C26.6107 52.3965 27.3086 52.3965 28.0065 52.3965V55.4434C28.0065 56.9668 26.727 58.2559 25.2148 58.2559H23.3537C21.8416 58.2559 20.5621 56.9668 20.5621 55.4434V48.4121C20.5621 48.0605 20.4457 47.8262 20.2131 47.5918C15.793 44.4277 13.1176 39.2715 13.1176 33.8809C13.1176 24.623 20.6784 17.0059 29.8676 17.0059H44.7565C45.3381 17.0059 45.8034 17.0059 46.5013 17.123C46.8503 17.123 47.0829 17.0059 47.3155 16.8887C49.293 14.5449 52.0846 13.2559 54.9926 13.2559H57.5517L55.6905 20.5215C55.6905 20.873 55.8069 21.2246 56.0395 21.459C57.9006 23.2168 59.4128 25.3262 60.3433 27.6699C60.4596 28.0215 60.8086 28.2559 61.1576 28.2559H62.4371C63.9492 28.2559 65.2287 29.5449 65.2287 31.0684V40.4434ZM50.3398 30.1309C49.293 30.1309 48.4787 30.9512 48.4787 32.0059C48.4787 33.0605 49.293 33.8809 50.3398 33.8809C51.3867 33.8809 52.201 33.0605 52.201 32.0059C52.201 30.9512 51.3867 30.1309 50.3398 30.1309ZM24.2843 13.2559C24.7496 13.2559 25.2148 12.7871 25.2148 12.3184C25.2148 6.57617 29.7513 2.00586 35.451 2.00586C40.6853 2.00586 45.2218 6.10742 45.6871 11.498C45.6871 11.9668 46.1523 12.3184 46.6176 12.3184C47.1992 12.3184 47.5482 11.8496 47.5482 11.2637C46.9666 5.05273 41.7322 0.130859 35.451 0.130859C28.8207 0.130859 23.3537 5.63867 23.3537 12.3184C23.3537 12.7871 23.819 13.2559 24.2843 13.2559Z" fill="#0066DE"/>
</g>
<defs>
<clipPath id="clip0_1354_14216">
<rect width="67" height="60" fill="white" transform="translate(0.0898438 0.130859)"/>
</clipPath>
</defs>
</svg>
