<svg width="57" height="57" viewBox="0 0 57 57" fill="none" xmlns="http://www.w3.org/2000/svg">
<g clip-path="url(#clip0_1354_14225)">
<path d="M19.9791 9.30078C20.1979 9.62891 20.7447 9.73828 21.1822 9.41016C21.5104 9.19141 21.6197 8.64453 21.2916 8.20703L17.6822 3.17578C17.4635 2.84766 17.4635 2.51953 17.5729 2.19141C17.7916 1.97266 18.0104 1.75391 18.3385 1.75391H37.8072C38.1354 1.75391 38.3541 1.97266 38.5729 2.19141C38.6822 2.51953 38.6822 2.84766 38.4635 3.17578L34.8541 8.20703C34.526 8.64453 34.6354 9.19141 34.9635 9.51953C35.1822 9.62891 35.2916 9.62891 35.5104 9.62891C35.7291 9.62891 36.0572 9.51953 36.276 9.30078L39.8854 4.16016C40.4322 3.39453 40.5416 2.30078 40.1041 1.42578C39.6666 0.550781 38.7916 0.00390625 37.8072 0.00390625H18.3385C17.3541 0.00390625 16.4791 0.550781 16.0416 1.42578C15.6041 2.30078 15.7135 3.39453 16.2604 4.16016L19.9791 9.30078ZM36.3854 13.1289H38.5729C39.0104 13.1289 39.4479 12.6914 39.4479 12.2539C39.4479 11.8164 39.0104 11.3789 38.5729 11.3789H17.5729C17.1354 11.3789 16.6979 11.8164 16.6979 12.2539C16.6979 12.6914 17.1354 13.1289 17.5729 13.1289H19.7604C-0.911502 26.1445 0.072873 42.8789 0.072873 45.0664C0.072873 51.082 5.43225 56.0039 12.1041 56.0039H44.0416C50.7135 56.0039 56.0729 51.082 56.0729 45.0664C56.0729 42.9883 56.9479 26.1445 36.3854 13.1289ZM54.3229 45.0664C54.3229 50.0977 49.7291 54.2539 44.0416 54.2539H12.1041C6.41662 54.2539 1.82287 50.0977 1.82287 45.0664V44.7383C1.60412 26.9102 16.151 17.7227 22.8229 13.1289H33.3229C40.3229 17.9414 54.5416 26.9102 54.3229 44.7383V45.0664ZM26.1041 28.0039H29.8229C31.026 28.0039 32.1197 28.4414 32.9947 29.3164C33.3229 29.6445 33.8697 29.6445 34.1979 29.3164C34.526 28.9883 34.526 28.4414 34.1979 28.1133C32.9947 26.9102 31.4635 26.2539 29.8229 26.2539H28.9479V23.6289C28.9479 23.1914 28.5104 22.7539 28.0729 22.7539C27.6354 22.7539 27.1979 23.1914 27.1979 23.6289V26.2539H26.1041C23.6979 26.2539 21.7291 28.2227 21.7291 30.7383C21.7291 32.707 23.0416 34.457 24.901 35.0039L30.6979 36.6445C31.901 36.9727 32.6666 38.0664 32.6666 39.2695C32.6666 40.8008 31.4635 42.0039 30.0416 42.0039H26.3229C25.1197 42.0039 24.026 41.5664 23.151 40.6914C22.8229 40.3633 22.276 40.3633 21.9479 40.6914C21.6197 41.0195 21.6197 41.5664 21.9479 41.8945C23.151 43.0977 24.6822 43.7539 26.3229 43.7539H27.1979V46.3789C27.1979 46.8164 27.6354 47.2539 28.0729 47.2539C28.5104 47.2539 28.9479 46.8164 28.9479 46.3789V43.7539H30.0416C32.4479 43.7539 34.4166 41.7852 34.4166 39.2695C34.4166 37.3008 33.1041 35.5508 31.2447 35.0039L25.4479 33.3633C24.2447 33.0352 23.4791 31.9414 23.4791 30.7383C23.4791 29.207 24.6822 28.0039 26.1041 28.0039Z" fill="#0066DE"/>
</g>
<defs>
<clipPath id="clip0_1354_14225">
<rect width="56" height="56" fill="white" transform="translate(0.0722656 0.00390625)"/>
</clipPath>
</defs>
</svg>
